/* XPM */
static char *_baf66515aa243bda7633b2114ca61438x0dvhmAYihClPNC[] = {
/* columns rows colors chars-per-pixel */
"40 44 35 1 ",
"  c None",
". c #CB3131",
"X c #CC3131",
"o c #CC3232",
"O c #CC3333",
"+ c #CD3838",
"@ c #CE3B3B",
"# c #CE3C3C",
"$ c #CF3E3E",
"% c #D24A4A",
"& c #D24B4B",
"* c #D24C4C",
"= c #D55858",
"- c #DA6D6D",
"; c #DB6F6F",
": c #DB7070",
"> c #DC7272",
", c #DC7474",
"< c #E18585",
"1 c #E9A7A7",
"2 c #E9A8A8",
"3 c #EAAAAA",
"4 c #ECB3B3",
"5 c #F0C1C1",
"6 c #F0C4C4",
"7 c #F9E8E8",
"8 c #FAEAEA",
"9 c #FAEBEB",
"0 c #FAECEC",
"q c #FAEDED",
"w c #FBEEEE",
"e c #FEFCFC",
"r c #FFFDFD",
"t c #FFFEFE",
"y c white",
/* pixels */
"                                        ",
"                                        ",
"                                        ",
"               OOOOOOOOOO               ",
"            OOOOOOOOOOOOOOOO            ",
"          OOOOOOOOOOOOOOOOOOOO          ",
"         OOOOOOOOOOOOOOOOOOOOOO         ",
"       OOOOOOOOOOOOOOOOOOOOOOOOOO       ",
"      OOOOOOOOOOOOOOOOOOOOOOOOOOOO      ",
"     OOOOOOOOOOOOOOOOOOOOOOO.OOOOOO     ",
"    OOOOOOO=#OOOOOOOOOOOOOO#=OOOOOOO    ",
"    OOOOOO>72#OOOOOOOOOOOO#29:OOOOOO    ",
"   OOOOOO>9tt1@OOOOOOOOOO@1tt9,OOOOOO   ",
"  OOOOOO,qtttt1#OOOOOOOO@1ttttq,OOOOOO  ",
"  OOOOO-qtttttt1@OOOOOO@1ttttttq;XOOOO  ",
" OOOOOO-9ttttttt1@OOOO@1tttttttq-OOOOOO ",
" OOOOOOO:9tttttte1@OO#1ttttttt9:OOOOOOO ",
" OOOOOOOO-9ttttttt1@#2ttttttt9-OOOOOOOO ",
"OOOOOOOOOO;9ttttttt22ttttttt9;OOOOOOOOOO",
"OOOOOOOOOOO;9tttttttttttttt9-OOOOOOOOOOO",
"OOOOOOOOOOOO:9tttttttttttt9-OOOOOOOOOOOO",
"OOOOOOOOOOOOO-9tttttttttt9:OOOOOOOOOOOOO",
"OOOOOOOOOOOOOO-7tttttttt9-OOOOOOOOOOOOOO",
"OOOOOOOOOOOOOO@5tttttttt5@OOOOOOOOOOOOOO",
"OOOOOOOOOOOOO#1etttttttte1@OOOOOOOOOOOOO",
"OOOOOOOOOOOO#1tttttttttttt1@OOOOOOOOOOOO",
"OOOOOOOOOOO@1ttttttttttttte1@OOOOOOOOOOO",
"OOOOOOOOOO@1ttttttt0qttttttt1#OOOOOOOOOO",
" OOOOOOOO#1ttttttt9;>9ttttttt1@OOOOOOOO ",
" OOOOOOO#1ttttttt9;OO-9ttttttt1@OOOOOOO ",
" OOOOOO$1ttttttt9:OOOO;9ttttttt1#OOOOOO ",
"  OOOOO<ttttttt9:OOOOOO;9ttttttt<.OOOO  ",
"  OOOOO&6ttttt9;OOOOOOOO:9ttttt6*OOOOO  ",
"   OOOO.&6ttt9-OOOOOOOOOO-9ttt6&.OOOO   ",
"    OOOO.&6t9:XOOOOOOOOOOO:9t6&.OOOO    ",
"    OOOOO.&4>OOOOOOOOOOOOOO>4*OOOOOO    ",
"     OOOOO.@OOOOOOOOOOOOOOOOOOOOOOO     ",
"      OOOOOOOOOOOOOOOOOOOOOOOOOOOO      ",
"       OOOOOOOOOOOOOOOOOOOOOOOOOO       ",
"         OOOOOOOOOOOOOOOOOOOOOO         ",
"          OOOOOOOOOOOOOOOOOOOO          ",
"            OOOOOOOOOOOOOOOO            ",
"               OOOOOOOOOO               ",
"                                        "
};
