/* XPM */
static char *result[] = {
/* columns rows colors chars-per-pixel */
"49 49 197 2 ",
"   c #000101",
".  c #050807",
"X  c #080807",
"o  c #070A0A",
"O  c #0B0B0A",
"+  c #060E11",
"@  c #0C1512",
"#  c #0F1914",
"$  c #1D1D1A",
"%  c #141915",
"&  c #0D140F",
"*  c #15211B",
"=  c #21221F",
"-  c #0E1F23",
";  c #102125",
":  c #152726",
">  c #1F3129",
",  c #152D33",
"<  c #242522",
"1  c #21352B",
"2  c #23382D",
"3  c #30332E",
"4  c #253C32",
"5  c #293D33",
"6  c #393B36",
"7  c #3A3C37",
"8  c #2A4337",
"9  c #2E4A3C",
"0  c #2B4538",
"q  c #3D413B",
"w  c #334138",
"e  c #1F4149",
"r  c #2C4F4C",
"t  c #27515B",
"y  c #28525D",
"u  c #234C58",
"i  c #3D604F",
"p  c #3D6152",
"a  c #3F5B7C",
"s  c #346E7C",
"d  c #4A4C45",
"f  c #4E514A",
"g  c #52534C",
"h  c #496959",
"j  c #52695A",
"k  c #62695F",
"l  c #445F7F",
"z  c #4A7661",
"x  c #4D7A64",
"c  c #6B7167",
"v  c #787D72",
"b  c #686B61",
"n  c #568A71",
"m  c #5B8D77",
"M  c #5D9278",
"N  c #708F7C",
"B  c #818679",
"V  c #858A7E",
"C  c #888B7F",
"Z  c #3D7E8D",
"A  c #466482",
"S  c #4C6986",
"D  c #4A6E8A",
"F  c #4A6683",
"G  c #437E81",
"H  c #4C7994",
"J  c #5C7E90",
"K  c #647F93",
"L  c #5C9884",
"P  c #428B9D",
"I  c #598594",
"U  c #629E85",
"Y  c #759581",
"T  c #698296",
"R  c #66A185",
"E  c #72A68A",
"W  c #72B496",
"Q  c #72B698",
"!  c #6BB099",
"~  c #4E8AA3",
"^  c #4C85A0",
"/  c #4A96AA",
"(  c #4B97AB",
")  c #5994A1",
"_  c #4C9CB3",
"`  c #449DB5",
"'  c #5199B0",
"]  c #4CA1B6",
"[  c #4FA3B8",
"{  c #51A5B9",
"}  c #55ABB9",
"|  c #5AAFB9",
" . c #57A9B4",
".. c #5DB2BB",
"X. c #5FB8B9",
"o. c #55A4AC",
"O. c #77ACA5",
"+. c #69B2A5",
"@. c #63B4BC",
"#. c #64BABA",
"$. c #6CBFB7",
"%. c #70BAB1",
"&. c #7CC7A8",
"*. c #6CC2BB",
"=. c #71C6BC",
"-. c #74CBBD",
";. c #79CAB8",
":. c #7CD4BD",
">. c #5DB7C0",
",. c #6CB4C1",
"<. c #68BFC0",
"1. c #71B8C2",
"2. c #6BC4C1",
"3. c #75CEC3",
"4. c #7DC9C3",
"5. c #7AD3C3",
"6. c #8A9888",
"7. c #97A996",
"8. c #9FB29F",
"9. c #A4AA9B",
"0. c #A2B09E",
"q. c #8399A5",
"w. c #8EAFAD",
"e. c #9FB4B5",
"r. c #A9B3A2",
"t. c #B2B7A7",
"y. c #A6B6B8",
"u. c #A5B4B7",
"i. c #80CCAA",
"p. c #99CFAF",
"a. c #84D1AD",
"s. c #87D6B3",
"d. c #86DBBD",
"f. c #89DEBF",
"g. c #87D7B5",
"h. c #95D6B8",
"j. c #BDC7B4",
"k. c #B1D4BA",
"l. c #8DE2BD",
"z. c #91E5BD",
"x. c #C4CDBA",
"c. c #85DDC2",
"v. c #8ADCC2",
"b. c #93DDC5",
"n. c #93D7C9",
"m. c #94C9CD",
"M. c #B4C3C1",
"N. c #A3D3D0",
"B. c #ACDAD4",
"V. c #B3DDD6",
"C. c #ADD8CB",
"Z. c #8BE4C7",
"A. c #9AE4C5",
"S. c #93EBC3",
"D. c #99EBC4",
"F. c #94E1C4",
"G. c #99F2C6",
"H. c #9EF0C8",
"J. c #95F2CE",
"K. c #A2ECC7",
"L. c #ACEECB",
"P. c #A6ECC8",
"I. c #B3EECD",
"U. c #B8E9C9",
"Y. c #AAF2CD",
"T. c #B2F0CD",
"R. c #B6EAD1",
"E. c #BBE7D5",
"W. c #B3F3D2",
"Q. c #BDF3D2",
"!. c #D5DDC9",
"~. c #CFDBD1",
"^. c #CBE6CC",
"/. c #CEE8D4",
"(. c #DBE6D6",
"). c #D7E9D8",
"_. c #C4F4D4",
"`. c #C9F5D6",
"'. c #CCFDDC",
"]. c #CAF8D8",
"[. c #D4F9DB",
"{. c #DBF9DE",
"}. c #D2F6DA",
"|. c #E4EED8",
" X c #E7F1DB",
".X c #D8EFE0",
"XX c #DCF2E1",
"oX c #DAFFE2",
"OX c #E3FCE2",
"+X c #EAFCE4",
"@X c #E7F6E2",
"#X c #F2FDE6",
"$X c #F5FFE9",
"%X c #FBFFEB",
"&X c #FEFFF1",
"*X c #FFFFFB",
"=X c None",
/* pixels */
"=X=X=X=X=X=X=X=X=X=X=X=X=X=X=X=X=X=X=X=X=X=X=X=X=X=X=X=X=X=X=X=X=X=X=X=X=X=X=X=X=X=X=X=X=X=X=X=X=X",
"=X=X=X=X=X=X=X=X=X=X=X=X=X=X=X=X=X=X=X=X=X=X=X=X=X=X=X=X=X=X=X=X=X=X=X=X=X=X=X=X=X=X=X=X=X=X=X=X=X",
"=X=X=X=X=X=X=X=X=X=X=X=X=X=X=X=X=X=X=X=X=X=X=X=X=X=X=X=X=X=X=X=X=X=X=X=X=X=X=X=X=X=X=X=X=X=X=X=X=X",
"=X=X=X=X=X=X=X=X=X=X=X=X=X=X=X=X=X=X=X=X=X=X=X=X=X=X=X=X=X=X=X=X=X=X=X=X=X=X=X=X=X=X=X=X=X=X=X=X=X",
"=X=X=X=X=X=X=X=X=X=X=X=X=X=X=X=X=X=X=X=X=X=X=X=X=X=X=X=X=X=X=X=X=X=X=X=X=X=X=X=X=X=X=X=X=X=X=X=X=X",
"=X=X=X=X=X=X=X=X=X=X=X=X=X=X=X=X=X=X=X=X=X=X=X=X=X=X=X=X=X=X=X=X=X=X=X=X=X=X=X=X=X=X=X=X=X=X=X=X=X",
"=X=X=X=X=X=X=X=X=X=X                                                    =X=X=X=X=X=X=X=X=X=X=X=X=X",
"=X=X=X=X=X=X=X=X=X        O X O . . . . . . . . . . . . . . . O X .       =X=X=X=X=X=X=X=X=X=X=X=X",
"=X=X=X=X=X=X=X=X=X    O < 6 7 w 8 > 4 4 4 4 4 8 4 4 4 4 4 5 w q 6 = O     =X=X=X=X=X=X=X=X=X=X=X=X",
"=X=X=X=X=X=X=X        $ g B 6.Y m n n n n n n n n n n n n n Y 6.B g $         =X=X=X=X=X=X=X=X=X=X",
"=X=X=X=X=X=X        O 7 6.j.^.U.s.a.a.a.a.a.a.a.a.a.a.a.a.h.U.^.x.N 3 .         =X=X=X=X=X=X=X=X=X",
"=X=X=X=X=X=X    O $ 7 c 8.^.oX'.W.Y.H.G.S.D.G.S.D.S.G.H.Y.Q.'.oX^.7.j 1 % X     =X=X=X=X=X=X=X=X=X",
"=X=X=X=X        $ g V 8.k.T.].'.[.'.W.G.D.S.G.S.S.S.H.T.].[.oX'.Q.p.E n 0 #         =X=X=X=X=X=X=X",
"=X=X=X        O 7 C x./.Q.P.I.]. X[.Q.H.z.S.S.z.z.S.K._.[.oX].L.D.z.s.Q x 1 .         =X=X=X=X=X=X",
"=X=X=X    O $ 6 c t. X+X'.I.I._.[.[._.T.K.z.S.S.D.K.T.`.{.[.R.b.d.5.Z.;.L p 1 # .     =X=X=X=X=X=X",
"          $ f B t.!.#X$XOX]._.Q.Q._.`.`._.L.D.D.Y._.].}._.I.F.4.*.*.*.*.+.U x 9 #         =X=X=X=X",
"        O 7 6.x.|.#X#X$X#XOX{.Q.P.L.`.{.[.Q.K.K.Q.{.oX`.I.F.;.#.} } } ..$.;.W x 2 .         =X=X=X",
"    O $ 6 c t. X%X%X$X$X%X$X X_.I.I._.{.[._.L.I._.[.}.R.b.:.#.| [ ] [ } #.5.;.L p > # o     =X=X=X",
"  X < g B r.!.#X&X%X$X$X%X$X+X{.`._._.Q._._._._.`._.I.b.-.X.| [ ] ` _ [ >.2.$.+.L z 9 * .   =X=X=X",
"  O 7 C x.|.+X#X$X%X$X$X$X$X$X#X+X[._.P.L.`.{.{.`.L.F.;.#.} } [ [ [ [ [ { } ..$.&.Q x 2 .   =X=X=X",
"  O d 9. X&X%X$X$X$X$X$X%X$X$X%X$XOX].T.T.}.+X+X'.R.A.v.4.,.@.@.........| | X.3.Z.g.M 0 o   =X=X=X",
"  & g 9.#X*X&X%X$X$X%X%X%X%X%X%X%X#X{.}.'. X#X#XOX}._.E.B.N.m.c.-.-.-.=.=.-.-.Z.J.l.L 0 o   =X=X=X",
"  & d 9.|.%X%X$X$X$X$X#X%X$X#X#X$X$X+XOX+X+X$X$X#X+XOX@XXX).R.b.c.c.f.f.d.c.d.S.S.g.M 8 o   =X=X=X",
"  O 7 v x.(.@X#X$X+X@XOX.X.X.X.X).XXXX.XXX+X#X+X@X).(.(.(./.C.h.g.g.g.d.d.Z.d.g.&.W z > .   =X=X=X",
"  X = d v 9.!.#X$XoX_.R.B.N.N.N.N.N.N.N.V..X+X@X~.M.u.u.u.u.w.O.O.%.%.-.3.4.*.! M h 0 % .   =X=X=X",
"    X % 3 b r.|.+X}.L.b.4.1.,.@.,.,.,.,.m.V.@X).M.q.K K K K K K I )  .| >.X.o.Z r : & .     =X=X=X",
"        X 6 B j.^.U.P.v.-.@.} [ _ _ ` [ ,.B..X(.y.T S A F S S D H ~ ' ] ] / Z u ; .         =X=X=X",
"=X        $ d v 7.k.Q.I.F.3.X.} >.` ` ` ,.B.XX(.y.K A A A A D H ^ ( ] _ P s u , +         =X=X=X=X",
"=X=X=X    X % 3 k 9./.}.W.F.-.X._ ` ` [ ,.B.XX).y.T A A A S H ~ ' [ { / s e ; o .     =X=X=X=X=X=X",
"=X=X=X        X 6 B x.^.I.z.Z.=.>.{ [ { ,.N.}.~.u.K S F D H ~ _ ] ] / Z t ; .         =X=X=X=X=X=X",
"=X=X=X=X        $ d v 7.p.z.Z.c.3.#.} { ,.m.E.V.w.K D D H ~ ' { ] P s t , +         =X=X=X=X=X=X=X",
"=X=X=X=X=X=X    X % 3 j E s.D.S.c.;.@.}  .v.A.h.O.J D H ~ _ { { / s e - + .     =X=X=X=X=X=X=X=X=X",
"=X=X=X=X=X=X        . 1 z W s.l.z.l.*.X.#.-.c.s.O.I H ^ ' ] ] / Z t ; .         =X=X=X=X=X=X=X=X=X",
"=X=X=X=X=X=X=X        @ 8 z M i.l.S.5.-.-.c.l.g.+.) ~ ( { ] P s t , +         =X=X=X=X=X=X=X=X=X=X",
"=X=X=X=X=X=X=X=X=X    . # > h M s.D.Z.l.d.l.l.d.$. .' _ [ / s e ; + .     =X=X=X=X=X=X=X=X=X=X=X=X",
"=X=X=X=X=X=X=X=X=X        . 1 x Q s.z.z.S.S.S.d.=.| [ _ / Z t ; .         =X=X=X=X=X=X=X=X=X=X=X=X",
"=X=X=X=X=X=X=X=X=X=X        @ 0 z R &.z.G.G.D.c.3.,._ P s t , o         =X=X=X=X=X=X=X=X=X=X=X=X=X",
"=X=X=X=X=X=X=X=X=X=X=X=X    . # 1 i M s.G.G.S.c.2.>./ s e ; + .     =X=X=X=X=X=X=X=X=X=X=X=X=X=X=X",
"=X=X=X=X=X=X=X=X=X=X=X=X        . > z W s.z.l.d.*.o.Z u - .         =X=X=X=X=X=X=X=X=X=X=X=X=X=X=X",
"=X=X=X=X=X=X=X=X=X=X=X=X=X        & 0 x R i.l.g.+.G y , o         =X=X=X=X=X=X=X=X=X=X=X=X=X=X=X=X",
"=X=X=X=X=X=X=X=X=X=X=X=X=X=X=X    . @ 1 p R a.a.L r ; +       =X=X=X=X=X=X=X=X=X=X=X=X=X=X=X=X=X=X",
"=X=X=X=X=X=X=X=X=X=X=X=X=X=X=X        . 1 x W W z : .         =X=X=X=X=X=X=X=X=X=X=X=X=X=X=X=X=X=X",
"=X=X=X=X=X=X=X=X=X=X=X=X=X=X=X=X        @ 9 x z 0 @         =X=X=X=X=X=X=X=X=X=X=X=X=X=X=X=X=X=X=X",
"=X=X=X=X=X=X=X=X=X=X=X=X=X=X=X=X=X=X    . * 1 1 * .     =X=X=X=X=X=X=X=X=X=X=X=X=X=X=X=X=X=X=X=X=X",
"=X=X=X=X=X=X=X=X=X=X=X=X=X=X=X=X=X=X      . . . .       =X=X=X=X=X=X=X=X=X=X=X=X=X=X=X=X=X=X=X=X=X",
"=X=X=X=X=X=X=X=X=X=X=X=X=X=X=X=X=X=X=X                =X=X=X=X=X=X=X=X=X=X=X=X=X=X=X=X=X=X=X=X=X=X",
"=X=X=X=X=X=X=X=X=X=X=X=X=X=X=X=X=X=X=X=X=X=X=X=X=X=X=X=X=X=X=X=X=X=X=X=X=X=X=X=X=X=X=X=X=X=X=X=X=X",
"=X=X=X=X=X=X=X=X=X=X=X=X=X=X=X=X=X=X=X=X=X=X=X=X=X=X=X=X=X=X=X=X=X=X=X=X=X=X=X=X=X=X=X=X=X=X=X=X=X",
"=X=X=X=X=X=X=X=X=X=X=X=X=X=X=X=X=X=X=X=X=X=X=X=X=X=X=X=X=X=X=X=X=X=X=X=X=X=X=X=X=X=X=X=X=X=X=X=X=X"
};
