/* XPM */
static char *result[] = {
/* columns rows colors chars-per-pixel */
"16 16 6 1 ",
"  c black",
". c #4C6885",
"X c #4FA4B8",
"o c #92E8C0",
"O c #F5FFE8",
"+ c None",
/* pixels */
"++++++++++++++++",
"++++++++++++++++",
"+++         ++++",
"++  OoooooO  +++",
"+  OoOoooOoo  ++",
"  OOOoOoOoXXo  +",
" OOOOOoOoXXXXo +",
" OOOOOOOOOoooo +",
"  OoXXXO...XX  +",
"+  OoXXO..XX  ++",
"++  ooXo.XX  +++",
"+++  oooXX  ++++",
"++++  ooX  +++++",
"+++++  o  ++++++",
"++++++   +++++++",
"++++++++++++++++"
};
