/* XPM */
static char *d83b1ed3ee76434b96afbe46de72e297l8KbW230QtM2v8YB[] = {
/* columns rows colors chars-per-pixel */
"50 50 211 2 ",
"   c None",
".  c black",
"X  c #0A0601",
"o  c #0B0601",
"O  c #0B0602",
"+  c #050902",
"@  c #060A03",
"#  c #140B03",
"$  c #1A0E03",
"%  c #1B0F04",
"&  c #0A1104",
"*  c #0B1205",
"=  c #0B1305",
"-  c #0E1706",
";  c #0E1806",
":  c #0F1906",
">  c #0F1A07",
",  c #0F1B07",
"<  c #1E1004",
"1  c #101B07",
"2  c #201104",
"3  c #2D1806",
"4  c #311B07",
"5  c #3A1F08",
"6  c #122008",
"7  c #132109",
"8  c #142309",
"9  c #192C0B",
"0  c #1A2C0C",
"q  c #1C2F0C",
"w  c #1C300C",
"e  c #1D310D",
"r  c #1F340E",
"t  c #1F360E",
"y  c #3D2108",
"u  c #3E2208",
"i  c #20360E",
"p  c #20370E",
"a  c #233C0F",
"s  c #233C10",
"d  c #243D10",
"f  c #243E10",
"g  c #243F10",
"h  c #452609",
"j  c #4D290A",
"k  c #502B0A",
"l  c #502C0A",
"z  c #552E0B",
"x  c #61340D",
"c  c #65370D",
"v  c #66370D",
"b  c #68380D",
"n  c #69390E",
"m  c #703D0F",
"M  c #254010",
"N  c #264111",
"B  c #264211",
"V  c #274311",
"C  c #284412",
"Z  c #284512",
"A  c #2B4913",
"S  c #2C4C13",
"D  c #2D4D14",
"F  c #2F5115",
"G  c #2F5215",
"H  c #325716",
"J  c #335716",
"K  c #355B17",
"L  c #355C17",
"P  c #355C18",
"I  c #375F18",
"U  c #3A641A",
"Y  c #3C661A",
"T  c #3C681B",
"R  c #445516",
"E  c #77400F",
"W  c #7F4510",
"Q  c #416F1D",
"!  c #41701C",
"~  c #42711D",
"^  c #43731D",
"/  c #43741E",
"(  c #44741E",
")  c #44761E",
"_  c #477A1F",
"`  c #497D20",
"'  c #4A7F20",
"]  c #814610",
"[  c #844811",
"{  c #854811",
"}  c #8C4C12",
"|  c #945614",
" . c #995314",
".. c #A65A15",
"X. c #A85B15",
"o. c #AD5E16",
"O. c #B16016",
"+. c #B46117",
"@. c #B76317",
"#. c #BD6618",
"$. c #C26919",
"%. c #C36A19",
"&. c #C56B19",
"*. c #C76C19",
"=. c #C86C19",
"-. c #CA6E19",
";. c #C96D1A",
":. c #CB6F1B",
">. c #CC6E1A",
",. c #CC6F1A",
"<. c #D3721B",
"1. c #D4731B",
"2. c #D9751B",
"3. c #D9751C",
"4. c #DB771C",
"5. c #DC761C",
"6. c #DC771C",
"7. c #DC781C",
"8. c #DD781C",
"9. c #E57C1D",
"0. c #E67D1D",
"q. c #E87E1D",
"w. c #EA7F1D",
"e. c #EB7F1D",
"r. c #E97E1E",
"t. c #D47C27",
"y. c #4A8021",
"u. c #4C8322",
"i. c #4E8622",
"p. c #4E8722",
"a. c #4F8723",
"s. c #4F8823",
"d. c #528C24",
"f. c #528D24",
"g. c #528E24",
"h. c #538F24",
"j. c #538F25",
"k. c #549025",
"l. c #549125",
"z. c #579726",
"x. c #589727",
"c. c #599A27",
"v. c #5B9D28",
"b. c #5C9E28",
"n. c #5C9F28",
"m. c #5EA229",
"M. c #5EA12A",
"N. c #5FA32A",
"B. c #60A52A",
"V. c #60A62A",
"C. c #61A62B",
"Z. c #61A82B",
"A. c #62A82B",
"S. c #62A92B",
"D. c #63AB2B",
"F. c #63AB2C",
"G. c #64AD2C",
"H. c #66B02D",
"J. c #67B22D",
"K. c #68B22D",
"L. c #68B42E",
"P. c #69B52E",
"I. c #6AB62E",
"U. c #6BB82F",
"Y. c #77CC34",
"T. c #EB801D",
"R. c #EC801E",
"E. c #EF811E",
"W. c #EC821F",
"Q. c #F0811F",
"!. c #F0821E",
"~. c #F2831F",
"^. c #E58226",
"/. c #EE8A29",
"(. c #F18723",
"). c #F78520",
"_. c #FB8720",
"`. c #FA8923",
"'. c #FD8821",
"]. c #FE8A22",
"[. c #FD8B24",
"{. c #FA8C26",
"}. c #F28B29",
"|. c #F28C2F",
" X c #FD8E29",
".X c #FB972A",
"XX c #FA912C",
"oX c #F59030",
"OX c #F79736",
"+X c #FC9736",
"@X c #FF9834",
"#X c #FF9B38",
"$X c #F7A142",
"%X c #FFA342",
"&X c #F6A44E",
"*X c #FFA94A",
"=X c #FEAC4F",
"-X c #FEB151",
";X c #FFB053",
":X c #FFB256",
">X c #FFB357",
",X c #FFBD64",
"<X c #FFB969",
"1X c #FFC168",
"2X c #FFC56E",
"3X c #FFC675",
"4X c #FFCE86",
"5X c #FFC490",
"6X c #FFD7AB",
"7X c #FFDCAD",
"8X c #FFEED4",
/* pixels */
"                                                                                                    ",
"                                                                                                    ",
"                                                                                                    ",
"                                                                                                    ",
"                                                                                                    ",
"                                                                                                    ",
"                                                                                                    ",
"                                                                                                    ",
"                                                                                                    ",
"                                                                                                    ",
"                                              .                                                     ",
"                                              a 0                                                   ",
"                                            . c.G .                 >                               ",
"                                            . c.H @   @           = ` B .                           ",
"                                            . c.V.K 1 c.*       > g.D.B .                           ",
"                                            . c.Q H a.P.*     w / d i 8                             ",
"                                            . c.u.u.Z.K * . s ) c.- a q                             ",
"                                            . ~ v.v.~ .   w ) V.( C k.B .                           ",
"                                              > ~ T @   * ~ b._ w v.V.d .                           ",
"                                            . a.Z.U . . g.B 1 B N.Z.A                               ",
"                                            . c.P.U - c.K.p D N.v.9                                 ",
"                                              S s.k.Q P.P P d.c.D         . .                       ",
"                                              5 R _ a.P.* ` P.k.i       8 i t                       ",
"                                          # # +.n o > N.8 d.H.V.k.6 * * D H.b.1                     ",
"                                      . y ,.,.e.8.m . . U.Y.U . 1 N.P.P.P.c.@                       ",
"                                    . x =.R.R.!.8.m > N.P.C L N.V.F.B = = =                         ",
"                                  . ] -.e.R.!.!.T.-.| t Z.k.c.k.i t 6                               ",
"                                  z %.!.}.$X$X(.!.!.,.. z.~ U G . .                                 ",
"                                4 @.e.|.&X2X2X/.T.8.O..   . . .                                     ",
"                              y %.R._.5X8X2X2Xt.,.m .                                               ",
"                          . h -.^..X6X7X3X,X X-.c #                                                 ",
"                          . l R.[.-X4X<X#X+X6.z 3                                                   ",
"                          k  .XX*X1X;X@X_.3.v <                                                     ",
"                        . } ^.%X:X:X|.!.<.] .                                                       ",
"                        % X.OX=X[.[.8.#.W .                                                         ",
"                      o ..e.[.`.R.0.,.n o                                                           ",
"                      o o.9.!.e.$.y 2 $                                                             ",
"                      o o.1.2.o.j                                                                   ",
"                      o E { { b o                                                                   ",
"                        . . . .                                                                     ",
"                                                                                                    ",
"                                                                                                    ",
"                                                                                                    ",
"                                                                                                    ",
"                                                                                                    ",
"                                                                                                    ",
"                                                                                                    ",
"                                                                                                    ",
"                                                                                                    ",
"                                                                                                    "
};
