/* XPM */
static char *result[] = {
/* columns rows colors chars-per-pixel */
"50 50 179 2 ",
"   c #030202",
".  c #090705",
"X  c #0A0907",
"o  c #0D0B09",
"O  c #100407",
"+  c #110B07",
"@  c #120609",
"#  c #120B0A",
"$  c #190B0D",
"%  c #16110C",
"&  c #19120C",
"*  c #1C0F13",
"=  c #240B0F",
"-  c #2F0E0E",
";  c #21100E",
":  c #230D12",
">  c #261113",
",  c #201419",
"<  c #2E171B",
"1  c #3A1A16",
"2  c #361F1E",
"3  c #3B1918",
"4  c #3E1219",
"5  c #2F1B23",
"6  c #39222D",
"7  c #362730",
"8  c #3A2B34",
"9  c #431C17",
"0  c #4D1C17",
"q  c #43171F",
"w  c #421B1A",
"e  c #4D1E1A",
"r  c #501E1B",
"t  c #4D221C",
"y  c #5A2417",
"u  c #5C2817",
"i  c #54231A",
"p  c #5D261C",
"a  c #5D291A",
"s  c #60291C",
"d  c #66311F",
"f  c #6E351E",
"g  c #70351E",
"h  c #4E2222",
"j  c #532623",
"k  c #5C2722",
"l  c #502D22",
"z  c #5B2B21",
"x  c #5B2D2C",
"c  c #472830",
"v  c #452F3C",
"b  c #4B2D38",
"n  c #44343C",
"m  c #573837",
"M  c #51363E",
"N  c #662F22",
"B  c #682F21",
"V  c #653122",
"C  c #6A3320",
"Z  c #64342D",
"A  c #703520",
"S  c #743822",
"D  c #4D3C49",
"F  c #453C47",
"G  c #513A46",
"H  c #543D4D",
"J  c #53414A",
"K  c #594553",
"L  c #51485A",
"P  c #5B4B5B",
"I  c #504555",
"U  c #67474D",
"Y  c #644C5C",
"T  c #6C5056",
"R  c #72565C",
"E  c #5D5565",
"W  c #5E5B6D",
"Q  c #5D5669",
"!  c #5E5E70",
"~  c #625C6E",
"^  c #69596B",
"/  c #645E70",
"(  c #5D616D",
")  c #5E6271",
"_  c #616475",
"`  c #646679",
"'  c #65697C",
"]  c #6A6D7D",
"[  c #6B6573",
"{  c #7A737F",
"}  c #886D6F",
"|  c #81707F",
" . c #6B6E81",
".. c #746D82",
"X. c #6D7184",
"o. c #727686",
"O. c #73758A",
"+. c #75798D",
"@. c #787C8D",
"#. c #777C90",
"$. c #7A7E93",
"%. c #897586",
"&. c #7D8196",
"*. c #7E8399",
"=. c #828396",
"-. c #82869B",
";. c #85899E",
":. c #8A8B9B",
">. c #878A95",
",. c #948F9E",
"<. c #9E8F9F",
"1. c #958496",
"2. c #8F929D",
"3. c #868AA1",
"4. c #8B8EA3",
"5. c #878BA5",
"6. c #8D91A6",
"7. c #9296AB",
"8. c #959AAD",
"9. c #999CAE",
"0. c #9696A1",
"q. c #969BB1",
"w. c #999DB2",
"e. c #A39DB2",
"r. c #9DA0B5",
"t. c #9EA4BA",
"y. c #A0A5AA",
"u. c #AFAFB6",
"i. c #A2A5BA",
"p. c #A6AABF",
"a. c #A4A7B1",
"s. c #ACB0B7",
"d. c #ACB0B8",
"f. c #AAAEC4",
"g. c #A7ABC6",
"h. c #B1ADC4",
"j. c #AEB2C6",
"k. c #ADB2C9",
"l. c #B2B5C7",
"z. c #B0B4CB",
"x. c #B5B9CF",
"c. c #BABDC6",
"v. c #B4B6D2",
"b. c #B6BAD2",
"n. c #B9BED3",
"m. c #BBBED9",
"M. c #BFC4CA",
"N. c #BDC1D5",
"B. c #BEC2DA",
"V. c #BFC3E0",
"C. c #C7CDCC",
"Z. c #C7C8D0",
"A. c #C3C6DD",
"S. c #C4C9DF",
"D. c #C6C9D6",
"F. c #CED2DC",
"G. c #D5D4DB",
"H. c #D2D2D6",
"J. c #C4C7E2",
"K. c #C6CAE5",
"L. c #C9CDE5",
"P. c #CACFE9",
"I. c #CED0E2",
"U. c #CDD1EC",
"Y. c #D2D4EC",
"T. c #D6DCEF",
"R. c #CFD2F1",
"E. c #D1D6F2",
"W. c #D5D9F4",
"Q. c #D9DBF5",
"!. c #DADDFA",
"~. c #DDE1EA",
"^. c #DDE2FA",
"/. c #E3E4EC",
"(. c #E4E5F9",
"). c #EBECF9",
"_. c #E3E6F7",
"`. c #F3F7FD",
"'. c None",
/* pixels */
"'.'.'.'.'.'.'.'.'.'.'.'.'.'.'.'.'.'.'.'.'.'.'.'.'.'.'.'.'.'.'.'.'.'.'.'.'.'.'.'.'.'.'.'.'.'.'.'.'.'.",
"'.'.'.'.'.'.'.'.'.'.'.'.'.'.'.'.'.'.'.'.'.'.'.'.'.'.'.'.'.'.'.'.'.'.'.'.'.'.'.'.'.'.'.'.'.'.'.'.'.'.",
"'.'.'.'.'.'.'.'.'.'.'.'.'.'.'.'.'.'.'.'.'.'.'.y.8.=.'.'.'.'.'.'.'.'.'.'.'.'.'.'.'.'.'.'.'.'.'.'.'.'.",
"'.'.'.'.'.'.'.'.'.'.'.'.'.'.'.'.'.'.'.'.'.'.Z.).Y.A.9.] '.'.'.'.'.'.'.'.'.'.'.'.'.'.'.'.'.'.'.'.'.'.",
"'.'.'.'.'.'.'.'.'.'.'.'.'.'.'.'.'.'.c.K.$.=.P.S.x.q.-. .0./.b.>.'.'.'.'.'.'.'.'.'.'.'.'.'.'.'.'.'.'.",
"'.'.'.'.'.'.'.'.'.'.'.'.'.'.'.'.H./.(.V.3.O.w.w.&.+. .` z.!.K.g.$.'.'.'.'.'.'.'.'.'.'.'.'.'.'.'.'.'.",
"'.'.'.'.'.'.'.'.'.'.'.'.'.'.'.@.U.W.P.t.$. .` ! Q E ! ` w.m.n.z.3.` '.'.'.'.'.'.'.'.'.'.'.'.'.'.'.'.",
"'.'.'.'.'.'.'.'.'.'.'.'.'.2.v.w.j.B.t.+.Q v 5 O @ X * 6 ^ =.k.6.O.` $. .'.'.'.'.'.'.'.'.'.'.'.'.'.'.",
"'.'.'.'.'.'.'.'.'.'.'.'.C.(.S.q.#.4...7 @             . O 5 L X.` w.g.-. .) '.'.'.'.'.'.'.'.'.'.'.'.",
"'.'.'.'.'.'.'.'.'.'.'.M._.E.j.6.` L 7 .               . . X , D [ P.J.7.$.' '.'.'.'.'.'.'.'.'.'.'.'.",
"'.'.'.'.'.'.'.'.'.'.'.l.m.i.3.+.F #               . . X o o o # 8 h.B.x.3. .! '.'.'.'.'.'.'.'.'.'.'.",
"'.'.'.'.'.'.'.'.'.'.l.7.$.=.+.I @               . . . X . o o o o v a.N.3. .) ) '.'.'.'.'.'.'.'.'.'.",
"'.'.'.'.'.'.'.'.'./.Q.l. . .H :               X   o . o o . o o # $ c ,.X.q.-.X.'.'.'.'.'.'.'.'.'.'.",
"'.'.'.'.'.'.'.'.a.!.U.j.&.W s 9           . X X o o o o o o o o X = y R F.T.9.*.' '.'.'.'.'.'.'.'.'.",
"'.'.'.'.'.'.'.'.9.Y.B.w.' m d k .         . . X X o o o o o o o o 3 d Z <.I.f.3.] '.'.'.'.'.'.'.'.'.",
"'.'.'.'.'.'.'.'.4.i.w.@.b C B s O       . . . X o o o o o o o o o 9 f C p 0.b.8.' ] '.'.'.'.'.'.'.'.",
"'.'.'.'.'.'.'.G.A.X.O.E q g B s O     . . . X o o o o o o o + % # w A C p U a.$.;.$.' '.'.'.'.'.'.'.",
"'.'.'.'.'.'.d.).K.$.` G i g N s O   . . X X o o o o o o o o o o # 3 A V a x ..w.P.4.$.'.'.'.'.'.'.'.",
"'.'.'.'.'.'.A.!.A.#./ N i A N s @ . . X X o o o o o o o o % o % # 9 C B a B } (.^.i.&.) '.'.'.'.'.'.",
"'.'.'.'.'.'.n.U.g.+.G C i A B s # . . X o o o + o o o o % o # # o 9 S N a C x e.P.i.&._ '.'.'.'.'.'.",
"'.'.'.'.'.'.i.b.7.' b d i f N s # . X X o o o o o # # o o o # # o w C C u C e | b.7.@.) '.'.'.'.'.'.",
"'.'.'.'.'.'.:.&.X.^ j C i A N s @ . X X o o o o o o # # # # # # # w g C u C p U 8.X.` _ '.'.'.'.'.'.",
"'.'.'.'.'.d.D.4.] H i C i A N s $ . X o o o o o # # # # o # # # # 9 f B u C s k =.@.@.O.'.'.'.'.'.'.",
"'.'.'.'.'.F.E.n.w.K i C i A B s @ . X + o o o o # # # # # # + # % 9 S N a C z k /.Y.f.&.W '.'.'.'.'.",
"'.'.'.'.'.m.S.g.-.G i d i g B s # . o o o O o # o # # # # # % & & 3 f C a f k N G.!.b.&.W '.'.'.'.'.",
"'.'.'.'.'.p.j.7.O.h y f i A N s # . o o o # # o # # # # o % $ & % t f d u C N C 1.E.k.#.! '.'.'.'.'.",
"'.'.'.'.'.@.;.$. .e u C i A B s $ o o o o o # # # o # # $ & & % & 9 C N u C a f %.b.q.] '.'.'.'.'.'.",
"'.'.'.'.'.o.' ' W p u C i g N s # o o o o # # # # # # % % & & & % t A V u C z A T 7. ._ '.'.'.'.'.'.",
"'.'.'.'.'.D.j.=.H g a C i f z i # X o o # # # # % + # & % & & & & t V C a C s A r =.w.$.) '.'.'.'.'.",
"'.'.'.'.0.W.A.r.P C a f i f 6 t $ X O # o # o # o o % & & & & & & 9 l V a C a f r ).E.8.X.'.'.'.'.'.",
"'.'.'.'.=.K.g.;.K f u f i f 2 t $ X o o # # # o # % & & & & & & & 9 l C a C s g 0 _.K.7.X.'.'.'.'.'.",
"'.'.'.'.X.9.6.&.H f u d i f h i # o o # # # # # # % & & & & & & & 9 z N a C a g r J.n.6. .'.'.'.'.'.",
"'.'.'.'.'.$.o.] H f a f i C d a # o o # # # # # # & & & & & & & & 3 g C u C a g e i.4.O. .'.'.'.'.'.",
"'.'.'.'.u.l.o.] G f a C i f B s # o o # o # # o # & & & & & & & & t C C a C s C i 2.&.#.-.'.'.'.'.'.",
"'.'.'.'.).Y.z.4.Y C a C i A B s $ o o # # # # o % & & & & & & & & 9 f C a C a f r ).Q.z.5._ '.'.'.'.",
"'.'.'.'.i.n.r.-.K g a C i A B s * o # # # # # * & & & & & & & & & 9 f N a C a f e Q.P.f.$._ '.'.'.'.",
"'.'.'.'.$.7.-.+.H g a C i A C s $ o o # # # o $ & & & & & & & & & t f C u C N f t B.k.4.X.) '.'.'.'.",
"'.'.'.'.!  .' ' H g a C i C N s % o # # # # + % & & & & & & & & & 3 f N u C a g e &.@. .` '.'.'.'.'.",
"'.'.'.'.:.:.X.` G f a d i A N s $ o o # # o # & & & & & & & & & & 9 f C u C z g r >.$.o.+.'.'.'.'.'.",
"'.'.'.'.`.W.f.3.H f a C i A B s $ o # # # # # & & & & & & & & & & t f C u C a C i `.(.b.3._ '.'.'.'.",
"'.'.'.'.^.J.q.$.H f a d i g C a $ o # # # # % & & & & & & & & & % 9 C N a C a g e Q.P.k.;._ '.'.'.'.",
"'.'.'.'.A.k.4.O.H f a C i g N s $ o o # # # # & & & & & & & & & & t g C a C s f r P.B.t.-._ '.'.'.'.",
"'.'.'.'.@.*.#. .H A a C i S N s $ o o # # # % & & & & & & & & & & t C C a C a A 0 w.9.$. .( '.'.'.'.",
"'.'.'.'.] -.` ) G g a C i S B s $ O # # # # % & & & & & & & & & & 3 f C u C s f 0 ` ` _ ' '.'.'.'.'.",
"'.'.'.'.G.L.8.$.K f y g i S a i $ @ # # o $ & & & & & & & & & & & 1 s f y C s f 0 H.B.i.3.) '.'.'.'.",
"'.'.'.'.Y.b.q.-.P f a g e j = $ X # # # + $ & & & & & & & & & & % & & 1 i C N S i ).Y.z.3._ '.'.'.'.",
"'.'.'.'.9.7.$.+.H g r s - @ o o @ X # + + $ & & & & & & & & & & & & & & > 9 k d e K.b.w.-._ '.'.'.'.",
"'.'.'.'.` ` ` ` v i 9 q = : : : * : : : > ; > > ; > > ; > > > > : > > > - < q e w &.@.+.' '.'.'.'.'.",
"'.'.'.'.'.'.'.'.'.'.'.'.'.'.'.'.'.'.'.'.'.'.'.'.'.'.'.'.'.'.'.'.'.'.'.'.'.'.'.'.'.'.'.'.'.'.'.'.'.'.",
"'.'.'.'.'.'.'.'.'.'.'.'.'.'.'.'.'.'.'.'.'.'.'.'.'.'.'.'.'.'.'.'.'.'.'.'.'.'.'.'.'.'.'.'.'.'.'.'.'.'."
};
