/* XPM */
static char *result[] = {
/* columns rows colors chars-per-pixel */
"50 50 190 2 ",
"   c #3F1318",
".  c #332F34",
"X  c #393339",
"o  c #4D1A16",
"O  c #46171B",
"+  c #451A1D",
"@  c #4D1A19",
"#  c #481719",
"$  c #501917",
"%  c #531E1A",
"&  c #4E201C",
"*  c #562315",
"=  c #5A2416",
"-  c #5F2917",
";  c #56231C",
":  c #5A241B",
">  c #5E291D",
",  c #632A16",
"<  c #632B1B",
"1  c #692F1B",
"2  c #6A2E16",
"3  c #67301F",
"4  c #6B311D",
"5  c #72351D",
"6  c #75391E",
"7  c #783A1E",
"8  c #451920",
"9  c #442423",
"0  c #4F2227",
"q  c #532323",
"w  c #552A24",
"e  c #5D2922",
"r  c #5B2E29",
"t  c #572827",
"y  c #43322E",
"u  c #5F3028",
"i  c #563928",
"p  c #563826",
"a  c #4F2F32",
"s  c #4C383A",
"d  c #5F3F31",
"f  c #55373A",
"g  c #5C3939",
"h  c #622B20",
"j  c #682F21",
"k  c #653324",
"l  c #6A3323",
"z  c #61332E",
"x  c #6F3A28",
"c  c #663B2A",
"v  c #703724",
"b  c #753A21",
"n  c #7A3B22",
"m  c #703A28",
"M  c #7A3C29",
"N  c #603F31",
"B  c #4F403E",
"V  c #51403C",
"C  c #7B4226",
"Z  c #75412B",
"A  c #7D4429",
"S  c #7E482C",
"D  c #674433",
"F  c #583841",
"G  c #533D4D",
"H  c #553640",
"J  c #474148",
"K  c #55404B",
"L  c #584642",
"P  c #4F4B52",
"I  c #564552",
"U  c #574D58",
"Y  c #5F505F",
"T  c #68484A",
"R  c #60434F",
"E  c #604550",
"W  c #714F57",
"Q  c #6E565F",
"!  c #7A5C5E",
"~  c #585A67",
"^  c #5B5D6D",
"/  c #5F5269",
"(  c #5F5E71",
")  c #625B6C",
"_  c #615E66",
"`  c #735863",
"'  c #655F71",
"]  c #5E606D",
"[  c #5F6270",
"{  c #62616A",
"}  c #626374",
"|  c #636679",
" . c #656A7C",
".. c #6A6C7D",
"X. c #696275",
"o. c #766E7D",
"O. c #834025",
"+. c #82452A",
"@. c #81492C",
"#. c #8A4D2F",
"$. c #89512E",
"%. c #824C33",
"&. c #8B4F32",
"*. c #825133",
"=. c #8F5635",
"-. c #8D5438",
";. c #905536",
":. c #915438",
">. c #6B6E82",
",. c #716B80",
"<. c #6D7184",
"1. c #6F7488",
"2. c #717586",
"3. c #73768A",
"4. c #75798D",
"5. c #7A7C8D",
"6. c #787389",
"7. c #777C90",
"8. c #7A7E92",
"9. c #87778B",
"0. c #7E8295",
"q. c #7E8399",
"w. c #828494",
"e. c #82859B",
"r. c #85899D",
"t. c #898A99",
"y. c #958595",
"u. c #92979B",
"i. c #8689A1",
"p. c #8A8EA2",
"a. c #8D92A6",
"s. c #8E93A9",
"d. c #9495A3",
"f. c #9195AB",
"g. c #9498AC",
"h. c #989CA6",
"j. c #969AB1",
"k. c #9A9DB3",
"l. c #9CA1B6",
"z. c #9EA2B9",
"x. c #A1A3B5",
"c. c #ABADB5",
"v. c #A2A5BA",
"b. c #A5AABD",
"n. c #AAACBF",
"m. c #A9A2B9",
"M. c #B2A6B2",
"N. c #B2B5BE",
"B. c #B8BABE",
"V. c #A5ACC1",
"C. c #AAAEC4",
"Z. c #B3ACC3",
"A. c #AEB2C7",
"S. c #AFB4CA",
"D. c #B3B6CB",
"F. c #B4B9CD",
"G. c #BBBBCD",
"H. c #B6BBD1",
"J. c #B9BED2",
"K. c #BDC2D9",
"L. c #BEC2D4",
"P. c #C5CBCE",
"I. c #C2C5D4",
"U. c #CACCD2",
"Y. c #C2C6DD",
"T. c #CCCCDF",
"R. c #CDD1D8",
"E. c #D2D6D9",
"W. c #C2C6E2",
"Q. c #C9CDE4",
"!. c #CCCEEA",
"~. c #C5C9E3",
"^. c #CED2EF",
"/. c #DDDFE6",
"(. c #D1D4EE",
"). c #D5D9EC",
"_. c #D5D8E3",
"`. c #CED3F1",
"'. c #D2D7F3",
"]. c #D4D9F4",
"[. c #DBDBF4",
"{. c #D5DCF9",
"}. c #DADCFA",
"|. c #DDE1F3",
" X c #E7E4ED",
".X c #E4E4F5",
"XX c #E1E3FB",
"oX c #E9EBF9",
"OX c #F7F8FA",
"+X c None",
/* pixels */
"+X+X+X+X+X+X+X+X+X+X+X+X+X+X+X+X+X+X+X+X+X+X+X+X+X+X+X+X+X+X+X+X+X+X+X+X+X+X+X+X+X+X+X+X+X+X+X+X+X+X",
"+X+X+X+X+X+X+X+X+X+X+X+X+X+X+X+X+X+X+X+X+X+X+X+X+X+X+X+X+X+X+X+X+X+X+X+X+X+X+X+X+X+X+X+X+X+X+X+X+X+X",
"+X+X+X+X+X+X+X+X+X+X+X+X+X+X+X+X+X+X+X+X+X+X+X+X+X+X+X+X+X+X+X+X+X+X+X+X+X+X+X+X+X+X+X+X+X+X+X+X+X+X",
"+X+X+X+X+X+X+X+X+X+X+X+X+X+X+X+X+X+X+X+X+X+X+XU.I.S.k...+X+X+X+X+X+X+X+X+X+X+X+X+X+X+X+X+X+X+X+X+X+X",
"+X+X+X+X+X+X+X+X+X+X+X+X+X+X+X+X+X+X+Xv.g.^ .X[.Y.A.s.5.{ c.G.+X+X+X+X+X+X+X+X+X+X+X+X+X+X+X+X+X+X+X",
"+X+X+X+X+X+X+X+X+X+X+X+X+X+X+X+X+XB.E.^.V.>.H.J.v.a.0.<.d.|.^.l.3.+X+X+X+X+X+X+X+X+X+X+X+X+X+X+X+X+X",
"+X+X+X+X+X+X+X+X+X+X+X+X+X+X+X+XL..X).H.s.>.7.5.| | X.| s.Y.K.D.f.| +X+X+X+X+X+X+X+X+X+X+X+X+X+X+X+X",
"+X+X+X+X+X+X+X+X+X+X+X+X+X+X+Xr.S.Q.J.s.1.) K a q q a I 6.f.F.b.e.| <.^ +X+X+X+X+X+X+X+X+X+X+X+X+X+X",
"+X+X+X+X+X+X+X+X+X+X+X+X+XE.(.F.0.b.g.X.G z * , : > 7 * t E 9.q.>...d.7.| +X+X+X+X+X+X+X+X+X+X+X+X+X",
"+X+X+X+X+X+X+X+X+X+X+X+XR..XQ.k.<.X.Y w - v 2 4 - 1 6 , : l e Y ) n.Y.a.8.| +X+X+X+X+X+X+X+X+X+X+X+X",
"+X+X+X+X+X+X+X+X+X+X+X0.).J.z.r.} g 1 1 4 v 5 4 < l n < = v , = q Y.~.H.a.>.} +X+X+X+X+X+X+X+X+X+X+X",
"+X+X+X+X+X+X+X+X+X+X+Xg.l.s.r.,.f u 5 4 5 M n b < l O.5 > b , - : ! D.J.f.>.| +X+X+X+X+X+X+X+X+X+X+X",
"+X+X+X+X+X+X+X+X+Xu._.Y.q.1. .g 3 3 7 n A M S A < v O.5 > m , , : 5 W m.0.r.0. .+X+X+X+X+X+X+X+X+X+X",
"+X+X+X+X+X+X+X+X+XP.}.Y.s. .G 4 5 3 A S @.Z %.A < l O.5 < M , , : 6 < K c.Q.l.8.| +X+X+X+X+X+X+X+X+X",
"+X+X+X+X+X+X+X+X+X}.!.J.r.) z 5 5 x $.@.S Z @.@.1 v &.5 < M 4 , : 7 < r M.'.F.r.>.~ +X+X+X+X+X+X+X+X",
"+X+X+X+X+X+X+X+X+Xz.A.f.X.+ O.b +.m $.@.%.M @.@.1 v :.5 < M 5 2 : 7 < , t m.J.g...| +X+X+X+X+X+X+X+X",
"+X+X+X+X+X+X+X+X).w.8.2.F ; +.A @.m -.+.@.Z @.@.3 b ;.C < M 5 4 : b < : - ` S.e.0.0.| +X+X+X+X+X+X+X",
"+X+X+X+X+X+X+XU.XXj.>.^ r ; &.S @.m $.S S Z @.S 1 x ;.+.> M 5 5 > 7 < , 1 z o.r.J.p.4.+X+X+X+X+X+X+X",
"+X+X+X+X+X+X+X}.].x.1.G l : =.S @.m &.@.@.Z @.S 1 l ;.@.h M v 5 h 7 , < < 3 T |.{.C.0.( +X+X+X+X+X+X",
"+X+X+X+X+X+Xp.].Y.f./ r b e =.@.@.m $.@.S Z @.@.k x ;.+.k M 5 5 h n , < h 4 : Z.`.A.0.( +X+X+X+X+X+X",
"+X+X+X+X+X+X5.I.D.8.G < m e =.S @.m -.S +.Z @.@.1 v :.@.l M 5 5 < M < < j 2 - 9.K.b.8.] +X+X+X+X+X+X",
"+X+X+X+X+X+Xw.r.r.>.H 1 A e =.A @.m $.+.S Z S @.1 x :.@.l A 5 5 e O.2 < h 1 - ` v.8. .' +X+X+X+X+X+X",
"+X+X+X+X+X+XT.V.2.| ; 5 S e =.S @.m &.@.S Z S @.j x :.@.k +.v 5 h O.5 < h 4 , % w.7.7.4.+X+X+X+X+X+X",
"+X+X+X+X+Xh.|.Y.C.4.; 5 S e =.S @.M =.+.+.Z S @.3 l :.@.k @.b 5 h O.5 1 j 4 , $ U.Y.l.0.^ +X+X+X+X+X",
"+X+X+X+X+Xp.].K.j.6.: 6 @.e =.S @.v $.S @.Z @.@.3 v ;.@.k %.m 6 h O.5 4 j 4 , $ .X{.H.0.] +X+X+X+X+X",
"+X+X+X+X+X0.H.b.0.I M M S e =.S @.v =.+.@.Z @.@.3 v ;.S k %.M 5 h O.5 5 j 4 , , y.`.S.7.[ +X+X+X+X+X",
"+X+X+X+X+X+Xa.r.3.G +.A @.e -.S @.m =.@.S Z @.@.3 v ;.#.l %.+.5 h O.5 4 j 5 , < 9.Y.b.>.^ +X+X+X+X+X",
"+X+X+X+X+X+X<.>.>.s O.M S e =.S @.m $.S S x V D 3 b *.s u %.A 5 h O.5 5 j 4 , , ` b.2.| +X+X+X+X+X+X",
"+X+X+X+X+X+XL.x. .O +.A @.e =.S @.x -.S S 9 ] V 3 v D ] & %.A 6 > O.5 5 j 5 , , 8 t.k.7.[ +X+X+X+X+X",
"+X+X+X+X+XI.].J.0.O #.A @.e =.S #.v &.@.S Z P V 3 l i P p %.S b h O.5 5 k 4 , , + /.!.f...+X+X+X+X+X",
"+X+X+X+X+XF.~.j.0.O &.S S e =.S @.m &.@.S Z J s 3 v D G k %.S Z e O.5 5 l b , 1 O .X~.f.2.+X+X+X+X+X",
"+X+X+X+X+Xr.k.r.1.O &.S %.e ;.@.@.m $.@.S Z X y 3 v D X k %.S C < O.5 6 j 6 , , 8 T.J.a...+X+X+X+X+X",
"+X+X+X+X+X2.5.3.>.O =.+.S e =.S @.m $.@.@.A . . 2 v V . k %.@.C e O.6 5 l b , , 8 G.v.8.} +X+X+X+X+X",
"+X+X+X+X+XU.r.2. .O ;.@.@.e =.S @.m &.@.@.Z p D 2 b $.p k %.@.A e O.5 5 j 6 , , + d.w.4.q.+X+X+X+X+X",
"+X+X+X+XN..XY.l.i.O ;.@.S e -.S @.m $.@.@.Z S +.3 v =.+.k %.S C < O.5 5 l 7 , , + oX}.H.i.} +X+X+X+X",
"+X+X+X+X0.D.A.a.7.+ =.@.%.e =.S +.m ;.@.+.Z @.S 3 b =.@.k %.@.C < O.5 5 j n 2 < + [.Q.C.7.} +X+X+X+X",
"+X+X+X+X>.p.a.8.>.# :.@.S e =.S @.m $.@.S Z @.@.3 b ;.@.k %.@.C e O.5 5 1 7 1 < O Y.S.p.>.} +X+X+X+X",
"+X+X+X+X+X<...|  .# =.@.S e -.S @.m &.@.@.Z @.S 3 l ;.@.k %.@.n < O.5 5 l n 2 , 8 e.7.>.| +X+X+X+X+X",
"+X+X+X+X+Xb.4.| | O =.@.S e =.S @.m -.@.S Z @.@.3 v ;.@.l %.S b < O.5 5 j n 2 < 8 t.8.2.3.+X+X+X+X+X",
"+X+X+X+XU.oXY.g.7.O =.@.@.e =.S @.m #.@.@.Z S @.3 m ;.@.l %.S m e O.5 5 l 7 2 < # OXXXH.r.} +X+X+X+X",
"+X+X+X+Xn.(.S.a.>.O =.+.@.e =.S #.v -.S S Z @.@.1 v :.S k %.S b < O.5 5 j n < , + XX`.S.r.} +X+X+X+X",
"+X+X+X+Xk.D.l.e.>.O ;.@.@.e =.S @.m &.S @.Z S @.j x :.@.l %.S b < O.5 5 l 7 2 < O Q.J.k.r.[ +X+X+X+X",
"+X+X+X+X+X0.e.1.>.8 =.@.S e =.S @.m $.@.@.Z @.@.3 x =.@.k %.S 7 < O.5 5 j n 1 , O x.g.8.1.[ +X+X+X+X",
"+X+X+X+X+Xh.5.| [ 8 ;.@.S e -.S @.v #.S S Z S @.1 v =.%.l %.S 6 h O.5 5 l 7 1 , O 6.3.<...+X+X+X+X+X",
"+X+X+X+XA.).A.e.8.+ :.@.%.h -.S @.m -.S @.Z @.@.j v :.@.v %.S 6 < O.5 v l 7 1 , # E.K.z.r.^ +X+X+X+X",
"+X+X+X+Xv.Y.C.r.e.+ +.7 6 : +.v b k n 7 b v b 7 < j +.5 > Z 6 4 < n 5 1 l b , , + oX'.F.i.} +X+X+X+X",
"+X+X+X+X+Xp.r.4.>.# m 2 , ; n , 1 h 5 , < x , 1 : < b , : 5 , , = 6 , , < 4 - < + W.D.g.0.} +X+X+X+X",
"+X+X+X+X+X+X] ] ~   ; @ @ # : o @ @ $ $ $ % @ @ @ @ ; @ # * o o # % $ $ @ % o @ O ......] +X+X+X+X+X",
"+X+X+X+X+X+X+X+X+X+X+X+X+X+X+X+X+X+X+X+X+X+X+X+X+X+X+X+X+X+X+X+X+X+X+X+X+X+X+X+X+X+X+X+X+X+X+X+X+X+X",
"+X+X+X+X+X+X+X+X+X+X+X+X+X+X+X+X+X+X+X+X+X+X+X+X+X+X+X+X+X+X+X+X+X+X+X+X+X+X+X+X+X+X+X+X+X+X+X+X+X+X"
};
