/* XPM */
static char *_2e43b89fdc94a1ea55b0a286897e9c4Qjcna0hxtVq5ehre[] = {
/* columns rows colors chars-per-pixel */
"50 50 101 2 ",
"   c None",
".  c black",
"X  c #010101",
"o  c #020202",
"O  c #040404",
"+  c gray2",
"@  c #060606",
"#  c #0B0B0B",
"$  c #0C0C0C",
"%  c gray6",
"&  c gray9",
"*  c #191919",
"=  c gray10",
"-  c #1B1B1B",
";  c #1E1E1E",
":  c #202020",
">  c #2A2A2A",
",  c gray17",
"<  c gray18",
"1  c #323232",
"2  c #343434",
"3  c gray22",
"4  c #3E3E3E",
"5  c gray25",
"6  c #414141",
"7  c #444444",
"8  c gray27",
"9  c #535353",
"0  c #565656",
"q  c gray38",
"w  c #656565",
"e  c gray48",
"r  c #808080",
"t  c #838383",
"y  c gray53",
"u  c gray56",
"i  c #989898",
"p  c gray60",
"a  c #9B9B9B",
"s  c gray62",
"d  c gray63",
"f  c #A9A9A9",
"g  c #AEAEAE",
"h  c gray70",
"j  c #B9B9B9",
"k  c #BBBBBB",
"l  c gray74",
"z  c gray76",
"x  c #C3C3C3",
"c  c #C5C5C5",
"v  c #C6C6C6",
"b  c #C8C8C8",
"n  c gray80",
"m  c #CDCDCD",
"M  c #CECECE",
"N  c gray81",
"B  c #D0D0D0",
"V  c #D2D2D2",
"C  c LightGray",
"Z  c #D5D5D5",
"A  c gray84",
"S  c #D7D7D7",
"D  c #D8D8D8",
"F  c #DADADA",
"G  c gray86",
"H  c gainsboro",
"J  c #DDDDDD",
"K  c gray87",
"L  c #DFDFDF",
"P  c gray88",
"I  c #E1E1E1",
"U  c #E2E2E2",
"Y  c gray89",
"T  c #E4E4E4",
"R  c gray90",
"E  c #E6E6E6",
"W  c #E7E7E7",
"Q  c gray91",
"!  c #E9E9E9",
"~  c #EAEAEA",
"^  c gray92",
"/  c #ECECEC",
"(  c gray93",
")  c #EEEEEE",
"_  c #EFEFEF",
"`  c gray94",
"'  c #F1F1F1",
"]  c gray95",
"[  c #F3F3F3",
"{  c #F4F4F4",
"}  c gray96",
"|  c #F6F6F6",
" . c gray97",
".. c #F8F8F8",
"X. c #F9F9F9",
"o. c gray98",
"O. c #FBFBFB",
"+. c gray99",
"@. c #FDFDFD",
"#. c #FEFEFE",
"$. c white",
/* pixels */
"                                                                                                    ",
"                                                                                                    ",
"                                                                                                    ",
"                                                                                                    ",
"                                            ! } $.$.$.$.$.$.$.O.' R                                 ",
"                                        } $.$.$.$.$.$.$.$.$.$.$.$.$.$./                             ",
"                                    / $.$.$.$.$.$.$.$.$.$.$.$.$.$.$.$.$.$.R                         ",
"                                  O.$.$.$.$.$.$.$.$.$.$.$.$.$.$.$.$.$.$.$.$.'                       ",
"                                $.$.$.$.$.$.$.$.$.$.$.$.$.$.$.$.$.$.$.$.$.$.$.}                     ",
"                              $.$.$.$.$.$.$.$.$.$.$.$.$.$.$.$.$.$.$.$.$.$.$.$.$.U                   ",
"                            O.$.$.$.$.$.$.$.$.$.$.$.$.$.$.$.$.$.$.$.$.$.$.$.$.$.$.                  ",
"                          / $.$.$.$.$.$.$.$.$.$.$.$.$.$.O.$.O.$.$.$.$.$.$.O.$.$.$.'                 ",
"                          $.$.$.$.$.$.$.$.$.$.$.$.$.O.O.O.O.O.O.O.$.$.$.O.$.O.$.$.$.                ",
"                        / $.$.$.$.$.$.$.$.$.$.O.O.O.' ' ! / ' } O.$.O.} } ' ' } } O./               ",
"                        ' $.$.$.$.$.$.$.$.$.$.$.' / R H H D U ! ' } } / R U R R / } $.              ",
"                        O.$.$.$.$.$.$.$.$.$.O.} / U C u 8 5 y D R ! R D y 3 5 p H ! } U             ",
"                        $.$.$.$.$.$.$.$.$.$.O.' U C 9 X X X X 5 A H D 0 X + $ : e U / /             ",
"                        $.$.$.$.$.$.$.$.$.$.} / D g X X X X X X d A l + X + # - < v / }             ",
"                        $.$.$.$.$.$.$.$.$.O.} / A y X X X X X X r n s X X + $ & , f ! }             ",
"                        $.$.$.$.$.$.$.$.$.$.O./ A p X X X X X X p n k + X + # & , z ! O.            ",
"                        ' $.$.$.$.$.$.$.$.O.O./ H v - X X X X ; n D A q X + # - w U ' O.            ",
"                        ' $.$.$.$.$.$.$.$.$.O.} R A h 1 X X 2 k D R R D p 5 4 y H / } $.            ",
"                          $.$.$.$.$.$.$.$.$.$.} ' R D n v v C H ! ' / ! U H U R / } O.}             ",
"                          $.$.$.$.$.$.$.$.$.$.O.O.' ! R H U R ' } O.O.O.' ' / ' O.O.$.'             ",
"                          $.$.$.$.$.$.$.$.$.$.$.O.O.} ' ' ' } O.O.O.$.O.O.O.O.O.$.$.$.}             ",
"                        ! $.$.$.$.$.$.$.$.$.$.$.$.O.O.O.$.O.O.$.$.$.$.$.O.$.$.$.$.$.$.R             ",
"                        O.$.$.$.$.$.$.$.$.$.$.$.$.$.$.$.O.$.$.$.$.$.$.$.$.$.$.$.$.$.$.              ",
"                      H $.$.$.$.$.$.$.$.$.$.$.$.$.$.$.$.$.$.$.$.$.$.$.$.$.$.$.$.$.$.O.              ",
"                      O.$.$.$.$.$.$.$.$.$.$.$.$.$.$.$.$.$.$.$.$.$.$.$.$.$.$.$.$.$.$./               ",
"                    ! $.$.$.$.$.$.$.$.$.$.$.$.$.$.$.$.$.$.$.$.$.$.$.$.$.$.$.$.$.$.$.                ",
"                    O.$.$.$.$.$.$.$.$.$.$.$.$.$.$.$.$.$.$.$.$.$.$.$.$.$.$.$.$.$.$.O.                ",
"                  } $.$.$.$.$.$.$.$.$.$.$.$.$.$.$.$.$.$.$.$.$.$.$.$.$.$.$.$.$.$.$.R                 ",
"              U $.$.$.$.$.$.$.$.$.$.$.$.$.$.$.$.$.$.$.$.$.$.$.$.$.$.$.$.$.$.$.$.O.                  ",
"          n ' $.$.$.$.$.$.$.$.$.$.$.$.$.$.$.$.$.$.$.$.$.$.$.$.$.$.$.$.$.$.$.$.$.!                   ",
"        H $.$.$.$.$.$.$.$.$.$.$.$.$.$.$.$.$.$.$.$.$.$.$.$.$.$.$.$.$.$.$.$.$.$.$.                    ",
"        $.$.$.$.$.$.$.$.$.$.$.$.$.$.$.$.$.$.$.$.$.$.$.$.$.$.$.$.$.$.$.$.$.$.$.R                     ",
"        $.$.$.$.$.$.$.$.! $.$.$.$.$.$.$.$.$.$.$.$.$.$.$.$.$.$.$.$.$.$.$.$.$.$.                      ",
"        H O.$.$.$.O.!   U $.$.$.$.$.$.$.$.$.$.$.$.$.$.$.$.$.$.$.$.$.$.$.$.$.H                       ",
"                        $.$.$.$.$.$.$.$.$.$.$.$.$.$.$.$.$.$.$.$.$.$.$.$.$.'                         ",
"                      ' $.$.$.$.$.$.$.b $.$.$.$.$.$.$.$.$.$.$.$.$.$.$.$.O.                          ",
"                      $.$.$.$.$.$.$.U b $.$.$.$.$.$.D $.$.$.$.$.$.$.$.$.                            ",
"                      $.$.$.$.$.$./   / $.$.$.$.$.$.! ' $.$.$.$.$.$.$.U                             ",
"                      $.$.$.$.$.!     ' $.$.$.$.$.$.    $.$.$.$.$.$.R                               ",
"                      ' } / n         O.$.$.$.$.$.'     $.$.$.$.$.R                                 ",
"                                      $.$.$.$.$.}       $.$.$.$.'                                   ",
"                                      O.$.$.$.}         O.$.$.}                                     ",
"                                        ! !             n ! !                                       ",
"                                                                                                    ",
"                                                                                                    ",
"                                                                                                    "
};
