/* XPM */
static char *_bf249eb46dd403bc672ab28ef41b40c3aeBio5A4Uxr029T[] = {
/* columns rows colors chars-per-pixel */
"50 50 196 2 ",
"   c None",
".  c #030202",
"X  c #090605",
"o  c #0C0A07",
"O  c #0E0908",
"+  c #100B07",
"@  c #130709",
"#  c #110A09",
"$  c #1C0B0E",
"%  c #17110A",
"&  c #181109",
"*  c #1C0D11",
"=  c #160E11",
"-  c #200C0E",
";  c #2A0E0F",
":  c #2B110E",
">  c #24110F",
",  c #200F16",
"<  c #221111",
"1  c #2D1312",
"2  c #3D1516",
"3  c #371813",
"4  c #3F1718",
"5  c #361B19",
"6  c #3F211D",
"7  c #2C1F27",
"8  c #3C2A35",
"9  c #392530",
"0  c #421916",
"q  c #4F1D16",
"w  c #45171C",
"e  c #41181A",
"r  c #4C1D1A",
"t  c #501E16",
"y  c #501E1B",
"u  c #4F221E",
"i  c #5B2515",
"p  c #55241B",
"a  c #5C271B",
"s  c #5D281C",
"d  c #592516",
"f  c #672F16",
"g  c #682F16",
"h  c #642C1C",
"j  c #682E18",
"k  c #6B331E",
"l  c #6F381D",
"z  c #67321C",
"x  c #70351D",
"c  c #72381E",
"v  c #4E2524",
"b  c #4C2B23",
"n  c #4E252A",
"m  c #472922",
"M  c #552420",
"N  c #582621",
"B  c #5D2C23",
"V  c #512728",
"C  c #5C2E2B",
"Z  c #5C302F",
"A  c #592E30",
"S  c #502F33",
"D  c #5D3332",
"F  c #53363D",
"G  c #5C3A3E",
"H  c #622D22",
"J  c #692D20",
"K  c #623123",
"L  c #683021",
"P  c #6D3A2E",
"I  c #66322A",
"U  c #713520",
"Y  c #743920",
"T  c #613634",
"R  c #653A37",
"E  c #4E3D4B",
"W  c #483843",
"Q  c #563941",
"!  c #5C454F",
"~  c #4D4452",
"^  c #504756",
"/  c #534A56",
"(  c #554B5A",
")  c #5B4C5B",
"_  c #6B4441",
"`  c #725052",
"'  c #5B5364",
"]  c #5C5B6D",
"[  c #5C5568",
"{  c #645563",
"}  c #695765",
"|  c #645C6C",
" . c #725F68",
".. c #765D68",
"X. c #605D70",
"o. c #5D616F",
"O. c #5F6272",
"+. c #7D616E",
"@. c #636274",
"#. c #666877",
"$. c #646679",
"%. c #66697A",
"&. c #696B7D",
"*. c #6A6478",
"=. c #736774",
"-. c #6E727C",
";. c #816D7B",
":. c #837074",
">. c #6B6E81",
",. c #646A81",
"<. c #726C80",
"1. c #6E7285",
"2. c #6C7288",
"3. c #727386",
"4. c #7D7483",
"5. c #727589",
"6. c #76798D",
"7. c #797C8F",
"8. c #79778B",
"9. c #7A7D92",
"0. c #777C93",
"q. c #867D88",
"w. c #877D93",
"e. c #7D8195",
"r. c #7E8299",
"t. c #808497",
"y. c #81859A",
"u. c #85899C",
"i. c #8B8C9E",
"p. c #878B94",
"a. c #96899B",
"s. c #9B9194",
"d. c #868BA1",
"f. c #8A8DA3",
"g. c #998FA4",
"h. c #8D91A5",
"j. c #8E92A9",
"k. c #9A9EA6",
"l. c #9396AC",
"z. c #9499AE",
"x. c #989BAB",
"c. c #9795A5",
"v. c #979BB2",
"b. c #9A9EB3",
"n. c #A599A6",
"m. c #9BA0AB",
"M. c #9DA1B6",
"N. c #9EA4BA",
"B. c #ADA2A7",
"V. c #AEA0A9",
"C. c #A2A5BB",
"Z. c #A5AABC",
"A. c #A9ACBB",
"S. c #A5AAB0",
"D. c #B0B1BB",
"F. c #A6AAC1",
"G. c #AAAEC4",
"H. c #A8AAC4",
"J. c #ADB1C5",
"K. c #ADB2C8",
"L. c #BABCC4",
"P. c #B2B6CB",
"I. c #B6BACF",
"U. c #BBB3C3",
"Y. c #B6BAD1",
"T. c #BABED4",
"R. c #C7BCC4",
"E. c #BFC1CD",
"W. c #BBC1D7",
"Q. c #BEC3DA",
"!. c #C7C0C6",
"~. c #C2C7CC",
"^. c #C5CAD3",
"/. c #C1C5DD",
"(. c #C7CADC",
"). c #CACBDF",
"_. c #C7CAD4",
"`. c #D1D6DB",
"'. c #C4C7E1",
"]. c #C5CAE4",
"[. c #C9CDE5",
"{. c #CCCFE8",
"}. c #CDD1EC",
"|. c #CCD0E6",
" X c #D1D3ED",
".X c #D6DAEC",
"XX c #D6D9E8",
"oX c #D3D7F3",
"OX c #D4D9F4",
"+X c #DBDEF5",
"@X c #D9DDFA",
"#X c #DEE0F6",
"$X c #DEE2FB",
"%X c #E2E6F4",
"&X c #E2E5FA",
"*X c #F0F0FC",
/* pixels */
"                                                                                                    ",
"                                              S.A.l.i.                                              ",
"                                      7.#.  XX&X.X/.Z.y.%.  p.                                      ",
"                                    _.|.z.>.(.'.Y.C.d.5.%.`.$XY.3.                                  ",
"                                _.*X@X'.l.3.N.b.d.0.3.,.>. XoX/.b.9.                                ",
"                              u..XOX/.C.9.$.X.[ ( ( ( ] 3.G.T.T.Z.e.$.                              ",
"                          f.F.f.I./.N.r.,.E S * $ @ * 9 W w.M.P.f.3.$.3.@.                          ",
"                        `.#X/.f.u.l.-.W , X . . . . . X X , W | 2.%.l.v.r.1.o.                      ",
"                      ~.%X}.G.y.$.[ 8 X . . . . . . . X X X # 7 ( 3.[.T.l.0.@.                      ",
"                      +X/.G.f.0.~ = X . . . . . . X X X X . o O * } }.(.P.f.2.O.                    ",
"                    l.f.l.y.9.^ = . . . . . . . . X X X X o O O X * } P.Y.j.>.O.                    ",
"                  %X Xx.>.>./ @ . . . . . . . . X X X X o X O O o + @ } H.9.r.e.&.#.                ",
"                ~.&X].C.5.' M - . . . . . . X X o o o o o o o o o X $ r  .A.|.x.e.%.                ",
"                /.oXT.b.&.S j 0 X . . . . . X X o o o o o o o o o O 1 j R U.OXJ.r.1.O.              ",
"              1.b.I.C.6.G s k t X . . . . o o o o o o o o o o o O # 0 k h _ I.T.z.1.#.              ",
"              T.f.y.9.| C h k q X . . . o . o o o o o o o o o o O # 4 k H s =.P.h.2.6.o.            ",
"            ~.+XZ.2.X.F h h L q X . X X X X o o o o o o o o + + O # e U K h C 7.t.G.x.5.            ",
"          k.XXoXK.9.{ y h h k q X X X X o o o o o o o o o + + + # # 4 L h h J :.(.oXP.y.%.          ",
"          z.@X].C.>.F x h h j y @ X X X o o o o o o o o + + # O O # 4 z h h x D  XOXQ.y.&.          ",
"          l.{.I.j.*.v k h h k t @ X X X o o o o o o o + O # O # # + 4 k H h U M w.{.Y.y.&.          ",
"          i.P.b.9.| w U h h j t @ . o X o o O o o o o # # # O # + # e z h h c y  .Y.b.6.#.          ",
"          c.6.1.&.Q p c h h L y + X X o o o o O O o # # O # # # + # 0 k h h U a _ i.1.$.@.          ",
"        k..X/.9.#.n s c h h L q @ X X o o o o O # # o # o # O + + # 0 k H h U a I 4.h.i.u.$.        ",
"        k.+X].H.t.n a c h h k t + X o o o o O O # # # # # # + + + $ 0 k h h U a P R.&XP.h.>.        ",
"        f.|.T.j.5.V a x h j j y O X o o o O O # o # o # + + + % & & 0 l H j U a P R.$X/.j.>.        ",
"        t.P.C.9.) i a x h h k t + X o O o O O O # O # # + + % % & & 0 L h h U a U +.OXY.d.&.        ",
"        1.f.d.2.) i a l h h j t # o o o O O + # O # # + O % % % & & 0 k H h c a k ..{.C.9.@.        ",
"          &.>.,.! i a l h h J y @ o O O O O + O # # O + % % % % & & 0 k h h U a U ` Z.6.$.o.        ",
"        k.J.h.] D f a l H j H y @ X o O O O + # O + + + % % % % & & 0 I h h U s U N { f.e.&.        ",
"        ^.OXY.7.D f a l h j 5 r # o O O # # # O + O % % % % & % & & 0 b s h c a c H V.OXJ.r.        ",
"         X(.C.5.D f a l s j 5 r # o o O # O O # + + + & & & & & & & 0 m h h U a U H n.oXG.y.@.      ",
"        K.H.f.&.D j s l h h 6 y @ o o o O # # # # + & & & & & % & & 0 b h s U a c H a./.Z.e.O.      ",
"        5.t.7.X.T g a c h h z r + O O O O O O # O % % % % % % & % & 0 k h h L s x s w.J.l.1.        ",
"        Z.3.&.] C f a l h h z q + O O O + + # # # % & & % % & & & & 0 g h h U s l B =.9.3.3.&.      ",
"      L.%XP.C.3.T g a l h h j r + O O O + # O O + & & % & % & & & & 0 k J h U a l B s.(.Y.j.1.      ",
"      C.{.T.z.8.T g a c h h k y $ O O O # O # # # % & & & & & & & & 0 k h h U a x B n.oXQ.j.5.      ",
"      7.G.b.y.&.D g a l h h k t # O O # # + # # & & & % & & & & & & 0 k H h U a l B g./.K.d.%.      ",
"      %.w.t.5.*.Z j a l h h j t # o O O # + + # & & & & & % & & & & 0 z h h x a k a q.C.h.1.$.      ",
"        >.%.%.X.C j a l h j L t $ O O O # # O # & & & & & & & & & & r k h h c a x a { *.%.$.        ",
"      D.[.z.9.X.C k a l H j L t # O # # # O # % & & & & & % & & & & 0 k H h x a c s p.K.M.e.3.      ",
"      ^.+XT.b.&.C f s c h h k q $ o O + + + + % & % % % & & & & & & 0 k h h U a l H V.$X|.j.5.      ",
"      G.].H.d.*.D f a l h h k q # O O O O + + % & & & % & & & & & & 0 z h h U s c B g.}.W.j.5.      ",
"      x.P.v.y.X.C f s l h h j y @ # O O # O % % % & % % & & & & & & 0 k H j U a l B a.W.G.f.1.      ",
"      #.6.9.>.*.D j s l h h k y @ O # # # + + & & & % % & & & & & & e k h h U a c a *.c.r.2.@.      ",
"      -.h.3.%.] C g h L H j L y @ + # O o + % & % & % & & % & & & & e k h h U a l d ) 1.1.$.O.      ",
"      L.OXK.h.5.D f s l j h B q @ @ # # + + % & & & % & & & & & $ & 3 s h h U s c B s.[.P.j.1.      ",
"      H./.G.j.6.G g s l s r ; @ o # o + O + % & & & & & & & & & % & & 1 0 a U s c B B.+XQ.M.5.      ",
"      h.C.f.9.*.Z g a h : @ O o o # + + + % % % & & & & % % % & % % % % & 1 p N c B g.Q.K.h.1.      ",
"        &.%.#.] V p 0 2 $ $ $ - $ * , - $ - < < < < < < < < < < < < < < < > 1 w u u | t.t.2.$.      ",
"                                                                                                    "
};
