/* XPM */
static char *result[] = {
/* columns rows colors chars-per-pixel */
"50 50 177 2 ",
"   c #161514",
".  c #181615",
"X  c #1B1916",
"o  c #1D1B19",
"O  c #211C16",
"+  c #221E1A",
"@  c #2B1715",
"#  c #25211C",
"$  c #2B241B",
"%  c #2F291D",
"&  c #2F2417",
"*  c #312619",
"=  c #342A1D",
"-  c #3B2D1C",
";  c #39301F",
":  c #262321",
">  c #2A2622",
",  c #2D2A25",
"<  c #2C2A2A",
"1  c #332D25",
"2  c #382F20",
"3  c #322E29",
"4  c #363125",
"5  c #3C3321",
"6  c #35312B",
"7  c #3A342D",
"8  c #363434",
"9  c #3A3732",
"0  c #3C3831",
"q  c #3B3A39",
"w  c #4E0B0D",
"e  c #520C0D",
"r  c #5A1513",
"t  c #5B231B",
"y  c #42311D",
"u  c #4B351C",
"i  c #533A1E",
"p  c #583E1F",
"a  c #64211A",
"s  c #453621",
"d  c #443924",
"f  c #4A3E26",
"g  c #403929",
"h  c #583F22",
"j  c #423C33",
"k  c #433F39",
"l  c #6E2F22",
"z  c #693223",
"x  c #703223",
"c  c #5C401E",
"v  c #504227",
"b  c #52442A",
"n  c #5A4A2B",
"m  c #5B4628",
"M  c #464037",
"N  c #474138",
"B  c #4B443B",
"V  c #4F483E",
"C  c #544A33",
"Z  c #51493E",
"A  c #5C5137",
"S  c #6A4B24",
"D  c #644E2B",
"F  c #624421",
"G  c #61512F",
"H  c #664D34",
"J  c #6F5A32",
"K  c #6A5936",
"L  c #715D34",
"P  c #7A6436",
"I  c #7D613F",
"U  c #494747",
"Y  c #4C4B41",
"T  c #4C4B4A",
"R  c #554D42",
"E  c #594F41",
"W  c #5D5446",
"Q  c #5E5549",
"!  c #585757",
"~  c #5A5959",
"^  c #635A4C",
"/  c #685C4C",
"(  c #625C52",
")  c #685F51",
"_  c #726542",
"`  c #7B6C46",
"'  c #6C6354",
"]  c #696759",
"[  c #6C6A5C",
"{  c #726655",
"}  c #736959",
"|  c #7B6F5C",
" . c #776A56",
".. c #7D705C",
"X. c #686767",
"o. c #6C6B6B",
"O. c #766F63",
"+. c #7E7361",
"@. c #825E3D",
"#. c #92593A",
"$. c #856D3A",
"%. c #9A6F34",
"&. c #8A713D",
"*. c #96793F",
"=. c #997C3F",
"-. c #90753E",
";. c #806843",
":. c #8B794D",
">. c #957A41",
",. c #9A7E42",
"<. c #967349",
"1. c #80725E",
"2. c #837763",
"3. c #857966",
"4. c #8A7C66",
"5. c #897D69",
"6. c #9E8144",
"7. c #A38545",
"8. c #A68847",
"9. c #A98A46",
"0. c #AD8D49",
"q. c #B08E47",
"w. c #B7944C",
"e. c #B9974E",
"r. c #BD9A4E",
"t. c #A08051",
"y. c #A18C58",
"u. c #B28050",
"i. c #8E816B",
"p. c #93846D",
"a. c #99886F",
"s. c #8C8B78",
"d. c #928672",
"f. c #968972",
"g. c #9B8C74",
"h. c #9F917A",
"j. c #B49D62",
"k. c #A2947C",
"l. c #A7987F",
"z. c #BBA365",
"x. c #C19D4E",
"c. c #C39B58",
"v. c #C6A152",
"b. c #CBA554",
"n. c #CFA855",
"m. c #D3AC57",
"M. c #D7AF58",
"N. c #DBB25A",
"B. c #E6BA5D",
"V. c #E9BD5E",
"C. c #DBB26E",
"Z. c #D0B56F",
"A. c #DFC277",
"S. c #ECC87A",
"D. c #AB9C82",
"F. c #A39887",
"G. c #ADA18E",
"H. c #B5A58A",
"J. c #BBAA8E",
"K. c #B0A085",
"L. c #BCAD93",
"P. c #BEB39E",
"I. c #C0AF92",
"U. c #C7B597",
"Y. c #C5B59A",
"T. c #C9B798",
"R. c #CAB99A",
"E. c #C8B597",
"W. c #CDBCA0",
"Q. c #F4D380",
"!. c #FCDB85",
"~. c #F9D783",
"^. c #CFC1A8",
"/. c #CFC0A5",
"(. c #D0C0A5",
"). c #D2C3A8",
"_. c None",
/* pixels */
"_._._._._._._._._._._._._._._._._._._._._._._._._._._._._._._._._._._._._._._._._._._._._._._._._._.",
"_._._._._._._._._._._._._._._._._._._._._._._._._._._._._._._._._._._._._._._._._._._._._._._._._._.",
"_._._._._._._._._._._._._._._._._._._._._._._._._._._._._._._._._._._._._._._._._._._._._._._._._._.",
"_._._._._._.. _._._._._._._._._._._._._._._._._._._.. . _._._._._._._._._._._._._._._._._._._._._._.",
"_._._._._._.. . . _._._._._._._._._._._._._._._._._.  . . _._._._._._._._._._._._._._._._._._._._._.",
"_._._._._._.. . . . _._._._._._._._._._.  .     . _._.  . . . _._._._._._._._._._._._._._._._._._._.",
"_._._._._._._.. # o . _._._._._._..   . + # : # o .     . . . . _._._._._._._._._._._._._._._._._._.",
"_._._._._._._.. 7 Z o     .     . 1 Q 5.h.D.D.k.f.5.' k #     . . _._._._._._._._._._._._._._._._._.",
"_._._._._._._.. # | W X   1 B W ..K.U.R.R.T.E.U.T.R.R.Y.F.( :   .   _._._._._._._._._._._._._._._._.",
"_._._._._._._._.. ^ a.Z   R L.E.R.E.U.U.U.U.U.U.U.U.U.T.W.^.F.k . . _._._._._._._._._._._._._._._._.",
"_._._._._._._._.. j a.p.j X 3.T.U.U.U.U.U.U.U.U.U.U.U.T.U.R.^.P.T . . _._._._._._._._._._._._._._._.",
"_._._._._._._.. . $ 1.g.1.# 3 K.T.U.U.U.U.U.U.U.U.U.U.U.U.U.U.W.P.B . . _._._._._._._._._._._._._._.",
"_._._._._._._.. # X ^ a.g.W . ) U.U.U.U.U.U.U.U.U.U.U.U.U.U.U.U.(.G.> . _._._._._._._._._._._._._._.",
"_._._._._._.. > Q X j 4.g.4.1 > D.U.U.U.U.U.U.U.U.U.U.U.U.U.T.Y.R.(.O.. . _._._._._._._._._._._._._.",
"_._._._._._.. B 5., > { p.a./ X ' U.U.U.U.U.U.U.U.T.U.U.T.T.T.D.5.P.L.<   _._._._._._._._._._._._._.",
"_._._._._._.. ' f.B . E 1.a.4.$ 0 J.U.R.k.R k.T.U.U.U.U.L.D.U.} X d.W.(   . _._._._._._._._._._._._.",
"_._._._._.  # 2.f.} X 7 { | p.V o g.R.T.d.. ) T.U.U.U.T.| 3 k.g.o / R.d.X . _._.. . .   _._._._._._.",
"_._._._._.  6 i.f.p.7 o ^  ...^ . } T.T.H.1 j I.U.U.T.T.5.X ( H., N Y.G.: . _._.. - D $ . . _._._._.",
"_._._._._.  0 p.f.f.E   $ Z / A X W U.T.U.k < H.R.T.R.T.H.3 j K.6 6 d.+.: . _.. o F %.%.u . _._._._.",
"_._._._._.  j p.f.f.M . O . o # . > R / { 9 + } 3.+.| { ^ : + 0 # . o . . . _.. = S F S s . _._._._.",
"_._._._._.. + M ' 5.6 % P G d X             . X . . . . X + $ # + # y = .   . + h S p y     _._._._.",
"_._._._._.. o O o 6 + 5 9.q.P X 3 B 9 :     . y J P P $.$.L f $ o X # # .   . $ S p u O . _._._._._.",
"_._._._._.  5 &.b o   - =.q.J . Y 5.k.k.3.R : X ; $.r.7.m O X 6 R ^ <     > < . * u & . _._._._._._.",
"_._._._._.. o 6.n.&.5 . ; =.=.;   . > R 2.D.h.) o - 7.5 o B 2.2.Q 0 o . . 3 o.U o X X   _._._._._._.",
"_._._._._._.. f M.m.7.G # v -.n   C C #   : V ! : f ,.X 0 { N o + # . . X   : ~ X.q .   _._._._._._.",
"_._._._._._.. . &.B.x.9.v   - $ 5 S.Q.Z.;.@ O o . >.M.b . . > K @.I o X . & & . 8 T o . _._._._._._.",
"_._._._._._._.. % q.w.*.$   .   ` !.!.~.#.e a H o 9.V.b.C X y.C.a z %   . - i & . . . _._._._._._._.",
"_._._._._._._..   d 6.J X M o   :.!.!.S.l e r H X 7.V.V.&.X z.C.r z 1   . . . O . _._._._._._._._._.",
"_._._._._._._._.. . f - > g.6   A Q.!.Q.#.e l b + e.V.B.6.. :.Q.u.<.#   + ! q . . _._._._._._._._._.",
"_._._._._._._._._.. .   B L.Q   + y.Q.!.S.c.,.< f M.B.B.b.2 4 j.z.A . . . 8 ! : . _._._._._._._._._.",
"_._._._._._._._._.. . . ' E.5.. . + C _ ` _ 4 + 8.V.B.B.B.>.+ X + .   6 o . . . _._._._._._._._._._.",
"_._._._._._._._._._.. o 2.U.D.: = b = + O # 5 ,.B.B.B.B.B.B.7.P n X # 5.8 . . _._._._._._._._._._._.",
"_._._._._._._._._._.. o B 2.' + - 9.e.r.r.e.*.w.V.V.N.V.b.>.v.8.5 . N { , . _._._._._._._._._._._._.",
"_._._._._._._._._._._.. . . . . X # 5 7.N.J o % &.>.b P n . % #   . X   . . _._._._._._._._._._._._.",
"_._._._._._._._._._._._.. . .   % A $ = A X 7 1 . . . . + j O   * u . . . _._._._._._._._._._._._._.",
"_._._._._._._._._._._._._._..   n v.J .   > i.f.W ' d.+.B .., . h p o . _._._._._._._._._._._._._._.",
"_._._._._._._._._._._._._._.. . . = % + $ o Q ^ > ' U.g.+ o . O i * . _._._._._._._._._._._._._._._.",
"_._._._._._._._._._._._._.. . - u & . $ &.5 . X . # ' N   o d # . . . _._._._._._._._._._._._._._._.",
"_._._._._._._._._._._._._.. . X = y # X 5 % . . .         X $.6.#   _._._._._._._._._._._._._._._._.",
"_._._._._._._._._._._._._.. d b & X . X & # # & $ $ & = - . n v.=   _._._._._._._._._._._._._._._._.",
"_._._._._._._._._._._._.. # e.N.x.,.$ o - y ; y - 5 - - & . b $.. _._._._._._._._._._._._._._._._._.",
"_._._._._._._._._._._._.  - m.A.V.m.1 . o o o + o   # > . # b $ . _._._._._._._._._._._._._._._._._.",
"_._._._._._._._._._._._.  # %.n.m.,.+ . 9 [ s.s.Y X 8 ] > . . . _._._._._._._._._._._._._._._._._._.",
"_._._._._._._._._._._._._.. X = - + . > o 6 ] Y o + # o X . . _._._._._._._._._._._._._._._._._._._.",
"_._._._._._._._._._._._._._..   . . X V 6   . . . > j o . . _._._._._._._._._._._._._._._._._._._._.",
"_._._._._._._._._._._._._._._._._.. 3 3 + . . . . 7 3 + . . _._._._._._._._._._._._._._._._._._._._.",
"_._._._._._._._._._._._._._._._._.. + > + . _._.. + : o . _._._._._._._._._._._._._._._._._._._._._.",
"_._._._._._._._._._._._._._._._._._.. . . . _._..   . . _._._._._._._._._._._._._._._._._._._._._._.",
"_._._._._._._._._._._._._._._._._._._._._._._._._._._._._._._._._._._._._._._._._._._._._._._._._._.",
"_._._._._._._._._._._._._._._._._._._._._._._._._._._._._._._._._._._._._._._._._._._._._._._._._._."
};
