/* XPM */
static char *_81e4fd9ea9e4f0ed96b8a8f1dd760717iRguOFjaL41RnzL[] = {
/* columns rows colors chars-per-pixel */
"50 50 116 2 ",
"   c None",
".  c black",
"X  c #010001",
"o  c gray2",
"O  c #0B0B0B",
"+  c #160C11",
"@  c #101010",
"#  c #161616",
"$  c gray10",
"%  c #1B1B1B",
"&  c gray11",
"*  c #23121B",
"=  c #28151F",
"-  c #222222",
";  c gray18",
":  c #2F2F2F",
">  c gray19",
",  c #323232",
"<  c #343434",
"1  c #353435",
"2  c #353535",
"3  c #373737",
"4  c gray22",
"5  c gray23",
"6  c gray24",
"7  c #3E3E3E",
"8  c #5D3048",
"9  c #434343",
"0  c gray27",
"q  c #4C4C4C",
"w  c #56424D",
"e  c #535353",
"r  c #555555",
"t  c gray35",
"y  c #5B5B5B",
"u  c #5D5D5D",
"i  c gray38",
"p  c #626262",
"a  c gray40",
"s  c #686868",
"d  c #6C6C6C",
"f  c #6F6F6F",
"g  c gray44",
"h  c #727272",
"j  c #767676",
"k  c #777777",
"l  c #7C7C7C",
"z  c #837A7F",
"x  c #EF7AB9",
"c  c #F47CBC",
"v  c gray52",
"b  c gray60",
"n  c #9A9A9A",
"m  c gray61",
"M  c gray62",
"N  c #A48B98",
"B  c #A0A0A0",
"V  c gray63",
"C  c gray64",
"Z  c gray66",
"A  c gray67",
"S  c #BCBCBC",
"D  c gray74",
"F  c gray75",
"G  c #FB80C2",
"H  c #FF82C5",
"J  c #FF8FCB",
"K  c #FF9ED2",
"L  c #FFABD8",
"P  c #F6B4D7",
"I  c #FDB8DC",
"U  c #FFB8DE",
"Y  c #FFB9DE",
"T  c #C6C6C6",
"R  c #CDCDCD",
"E  c gray81",
"W  c gray82",
"Q  c LightGray",
"!  c #D5D5D5",
"~  c #D7D7D7",
"^  c #D8D8D8",
"/  c gray85",
"(  c #DADADA",
")  c gray86",
"_  c #DDDDDD",
"`  c gray87",
"'  c #FFC2E3",
"]  c #FFC3E3",
"[  c #FFD2EA",
"{  c #FFDFF0",
"}  c gray88",
"|  c #E2E2E2",
" . c gray89",
".. c #E6E6E6",
"X. c gray91",
"o. c #E9E9E9",
"O. c gray92",
"+. c #ECECEC",
"@. c #EEEEEE",
"#. c #FFE8F4",
"$. c #FFEDF7",
"%. c gray95",
"&. c #F4F4F4",
"*. c #F6F6F6",
"=. c gray97",
"-. c #F9F6F7",
";. c #F8F8F8",
":. c gray98",
">. c #FFF9FC",
",. c #FFFBFD",
"<. c #FDFDFD",
"1. c #FFFCFD",
"2. c #FFFCFE",
"3. c #FFFDFE",
"4. c #FEFEFE",
"5. c white",
/* pixels */
"                                                                                                    ",
"                                                . . .                     . . .                     ",
"                                              . . . .                   . . . .                     ",
"                                              , 4 4 <                   < 4 4 4                     ",
"                                          . . ~ 5.5.:.6 .           . % %.5.5.5.. .                 ",
"                                          . . ~ 5.5.:.6 .           . % %.5.5.5.. .                 ",
"                                          . . ~ 5.5.:.6 .           . % %.5.5.5.. .                 ",
"                                          . . ~ 5.5.-.< .           . $ %.5.>.5.. .                 ",
"                                          . . ~ >.J G 8 .           . & %.$.H H = .                 ",
"                                          . . ~ >.J G 8 .           . $ %.$.H H = .                 ",
"                                          . . ~ 5.J G 8 .           . & %.$.H H = .                 ",
"                                          . . ~ >.J G 8 .           . $ %.$.H H = .                 ",
"                                          . . ~ >.J G 8 .           . & %.$.H H = .                 ",
"                                          . . ~ 5.J G 8 .           . $ %.$.H H = .                 ",
"                                          . . ~ >.J G 8 . . . . . . . o < w c H = .                 ",
"                                          . . ^ >.J G 8 . . . . . . . . . * x H = .                 ",
"                                          . . ~ 5.' I N g g g g g g g g g z P Y + .                 ",
"                                          . . ~ 5.5.5.5.5.5.5.5.5.5.5.5.5.5.5.5.. .                 ",
"                                          e t ..5.5.5.5.5.5.5.5.5.5.5.5.5.5.5.5.u e                 ",
"                                      . . 5.5.5.5.5.5.5.5.5.5.5.5.5.5.5.5.5.5.5.5.5.. .             ",
"                                      . . 5.5.5.5.5.5.5.5.5.5.5.5.5.5.5.5.5.5.5.5.5.. .             ",
"                                      . . 5.5.5.5.5.5.5.5.5.5.5.5.5.5.5.5.5.5.5.5.5.. .             ",
"                                      . . 5.5.5.5.5.5.5.5.| E } 5.5.5.5.5.*.W W *.5.. .             ",
"                                      . . 5.5.5.5.5.5.5.5.j $ r 5.5.5.5.5._ $ $ ( 5.. .             ",
"                                      . . 5.5.5.5.5.5.5.5.a . 6 5.5.5.5.5.( . . ~ 5.. .             ",
"                                      . . 5.5.5.5.5.5.5.5.a . 6 5.5.5.5.5.( . . ~ 5.. .             ",
"                                      . . 5.5.5.5.5.5.5.5.a . 6 5.5.5.5.5.( . . W 5.. .             ",
"                              . . . . . . 5.5.5.5.5.5.5.5.a . 6 5.5.5.5.5.( . . ~ 5.. .             ",
"                            . . . . . . . 5.5.5.5.5.5.5.5.a . 6 5.5.5.5.5.( . . ~ 5.. .             ",
"                          . 0 Z Z Z j . . 5.5.5.5.5.5.5.5.E Z T 5.{ K L >.*.A C %.5.. .             ",
"                        . . v 5.5.5.D . . 5.5.5.5.5.5.5.5.5.5.5.5.[ H J >.5.5.5.5.5.. .             ",
"                        6 f D 5.5.5._ g i i s O.5.5.5.5.5.5.5.5.5.#.U ' 5.5.5.5.f i . .             ",
"                . . . . C 5.5.5.5.5.5.5.( . . ( 5.5.5.5.5.5.5.5.5.5.5.5.5.5.5.5.. .                 ",
"                q s . . C 5.5.5.5.5.5.5.O.s u g l l l l l l l l l l l l l l l l . .                 ",
"            . . O.5.. . C 5.5.5.5.5.5.5.5.5.| $ . . . . . . . . . . . . . . . .                     ",
"            . . O.5.. . C 5.5.5.5.5.5.5.5.5.O.< & & & & & & & $ & @ . . . . . .                     ",
"            . . O.5.. . C 5.5.5.5.5.5.5.5.5.5.5.5.5.5.5.:.5.:.5.5.b . .                             ",
"            . . S W . . C 5.5.5.5.5.5.5.5.5.5.5.:.~ W +.5.5.5.5.5.C . .                             ",
"                . . . . C 5.5.5.5.5.5.5.5.5.5.5.*.& . C 5.5.5.5.5.C . .                             ",
"                . . . . C 5.5.5.5.5.5.5.5.5.5.5.*.$ . M 5.5.5.5.5.C . .                             ",
"                    . . C 5.5.5.5.5.5.5.5.5.5.5.5.+.| < . M 5.5.5.C . .                             ",
"                    . . C 5.5.5.5.5.5.5.5.5.5.5.5.5.:.6 . b 5.5.5.C . .                             ",
"                    . . C 5.5.5.C . . . . . . ( 5.5.5.O.| t . 9 5.C . .                             ",
"                    . . C 5.5.5.b . . . . . . ~ 5.5.5.5.5.a . 6 5.C . .                             ",
"                    . . C 5.5.5.b . .     . . : 6 | 5.5.5.a . O 4 - . .                             ",
"                    . . C 5.5.5.b . .     . . . . W 5.5.5.a . . . . . .                             ",
"                        , 6 6 6 :             . . , 6 6 6 # . .                                     ",
"                        . . . . .             . . . . . . . . .                                     ",
"                          . . .               . . . . . . . .                                       ",
"                                                                                                    "
};
