/* XPM */
static char *_635fdf235df483aa9091063ad180a5adNqBu02SNeVoh82b[] = {
/* columns rows colors chars-per-pixel */
"50 50 107 2 ",
"   c None",
".  c black",
"X  c gray2",
"o  c #070707",
"O  c #0B0B0B",
"+  c gray5",
"@  c gray6",
"#  c gray8",
"$  c #151515",
"%  c #181818",
"&  c gray13",
"*  c #232323",
"=  c gray14",
"-  c #252525",
";  c gray15",
":  c #272727",
">  c gray16",
",  c #2A2A2A",
"<  c gray17",
"1  c gray20",
"2  c #3A3A3A",
"3  c #6B3652",
"4  c #4B4B4B",
"5  c gray32",
"6  c #555555",
"7  c gray36",
"8  c #675E63",
"9  c #606060",
"0  c #626262",
"q  c gray39",
"w  c gray40",
"e  c #676767",
"r  c #6A6A6A",
"t  c gray42",
"y  c #6D6D6D",
"u  c gray44",
"i  c #727272",
"p  c #747474",
"a  c #777777",
"s  c #7B7177",
"d  c gray48",
"f  c #7B7B7B",
"g  c #804163",
"h  c #804B67",
"j  c #8A4C6D",
"k  c #83586F",
"l  c #95617D",
"z  c #807A7D",
"x  c #808080",
"c  c #838383",
"v  c gray54",
"b  c gray56",
"n  c gray57",
"m  c #959595",
"M  c #9A9A9A",
"N  c #9D9D9D",
"B  c gray62",
"V  c #A0A0A0",
"C  c gray63",
"Z  c #A2A2A2",
"A  c #A4A4A4",
"S  c #A5A5A5",
"D  c #A7A7A7",
"F  c #A9A9A9",
"G  c #AAAAAA",
"H  c gray67",
"J  c #B4B4B4",
"K  c gray72",
"L  c #FF82C5",
"P  c #FF8DCA",
"I  c #FF97CF",
"U  c #EAABCD",
"Y  c #FBB2D9",
"T  c #FCB3DA",
"R  c #FFB6DD",
"E  c #FABCDD",
"W  c #FBBCDE",
"Q  c gray77",
"!  c gray80",
"~  c #D5D5D5",
"^  c #FFC1E2",
"/  c #FFC3E3",
"(  c #FFC6E4",
")  c #E1E1E1",
"_  c gray89",
"`  c #E6E6E6",
"'  c #E9E9E9",
"]  c #EAEAEA",
"[  c #F7E2ED",
"{  c #F6EAF0",
"}  c #F6EBF1",
"|  c #F3EEF1",
" . c #F4EFF2",
".. c #F1F1F1",
"X. c #F3F3F3",
"o. c #F4F4F4",
"O. c gray96",
"+. c #F6F6F6",
"@. c gray97",
"#. c #FFF5FA",
"$. c #FBFBFB",
"%. c #FFF9FC",
"&. c #FFFAFD",
"*. c gray99",
"=. c #FDFDFD",
"-. c #FEFEFE",
";. c white",
/* pixels */
"                                                                                                    ",
"                                                                                                    ",
"                                            . . . .                 . . . . .                       ",
"                                            ; > > > &               = > > > *                       ",
"                                        . . A O.O.O.w .         . . f O.O.O.f . .                   ",
"                                        . . A O.O.O.w .         . . f O.O.O.f . .                   ",
"                                        . . A O.O.O.w .         . . f O.O.O.f . .                   ",
"                                        . . A O.{ [ 8 .         . . f O.} [ s . .                   ",
"                                        . . A O.Y L 3 .         . . f O.W L g . .                   ",
"                                        . . A O.Y L 3 .         . . f O.W L g . .                   ",
"                                        . . A O.Y L 3 .         . . f ;.^ L g . .                   ",
"                                        . . Z O.Y L 3 .         . . c ;.^ L g . .                   ",
"                                        . . A X.Y L 3 .         . . c ;.^ L g . .                   ",
"                                        . . A $.T L 3 . .       . . t ~ U L g . .                   ",
"                                        . . G ;.R L 3 . . . . . . . + $ j L g . .                   ",
"                                        . . G ;./ I k < < < < > < < > > l I h . .                   ",
"                                        . . G ;.%.#.| ] ] ] ] ] ] ] ] ] | #.z . .                   ",
"                                        ; > K ;.;.;.;.;.;.;.;.;.;.;.;.;.;.;.m > ;                   ",
"                                    . . M ) O.;.;.;.;.;.;.;.;.;.;.;.;.;.;.;.X.] f .                 ",
"                                    . . Z O.$.;.;.;.;.;.;.;.;.;.;.;.;.;.;.;.;.;.f . .               ",
"                                    . . A O.$.;.;.;.;.;.;.;.;.;.;.;.;.;.;.;.;.;.c . .               ",
"                                    . . A O.;.;.;.;.;.;.X.] O.;.;.;.;.;.X.] X.;.c . .               ",
"                                    . . A O.;.;.;.;.;.;.a $ B ;.;.;.;.;.v $ v ;.f . .               ",
"                                    . . A O.$.;.;.;.;.;.t . m ;.;.;.;.;.c . c ;.c . .               ",
"                                    . . G ;.;.;.;.;.;.;.t . m ;.;.;.;.;.x . c ;.c . .               ",
"                                    . . G ;.;.;.;.;.;.;.t . m ;.;.;.;.;.c . f ;.f . .               ",
"                            . . . . . . Z O.$.;.;.;.;.;.t . m ;.;.;.;.;.f . c ;.c . .               ",
"                            $ $ $ $ O . A O.$.;.;.;.;.;.a $ B ;.%.#.%.;.v $ v ;.c . .               ",
"                        . . B ~ ) ) 4 . Z O.;.;.;.;.;.;.X.] O.;.( P ( ;.O.] O.;.f . .               ",
"                        $ % H O.O.O.q $ B ) X.;.;.;.;.;.;.;.;.;./ P ( ;.;.;.X.] f .                 ",
"                . . . . M ) X.;.;.;.X.] 7 $ H O.$.;.;.;.;.;.;.;.%.#.%.;.;.;.v $ $                   ",
"                $ $ X . A O.$.;.;.;.;.;.q $ B ) ` ] ] ] ] ] ] ] ] ] ] ] ] ] f .                     ",
"            . . Z ! 1 . A O.;.;.;.;.;.;.) ~ q > > > < < > < < < < > < < < < ;                       ",
"            . . J O.2 . A O.$.;.;.;.;.;.;.;.q $ $ $ $ $ $ $ $ $ + . . . . .                         ",
"            . .     + . A ;.;.;.;.;.;.;.;.;.) ~ ~ ~ ~ ~ ~ ~ ~ ~ t . .                               ",
"            . .     . . G ;.;.;.;.;.;.;.;.;.;.;.;.;.;.;.;.;.;.;.c . .                               ",
"                . . . . G ;.;.;.;.;.;.;.;.;.;.;.;.;.;.;.;.;.;.;.f . .                               ",
"                . . . . G ;.;.;.;.;.;.;.;.;.;.;.;.;.;.;.;.;.;.;.c . .                               ",
"                    . . G ;.;.;.;.;.;.;.;.;.;.;.;.;.;.;.;.;.;.;.c . .                               ",
"                    . . G ;.;.;.;.;.;.;.;.;.;.;.;.;.;.;.;.;.;.;.f . .                               ",
"                    . . G ;.;.;.i > < < < < > < A ;.;.;.;.;.;.;.] ~ a .                             ",
"                    . . G ;.;.;.6 . . . . . . . m ;.;.;.;.;.;.;.;.;.f . .                           ",
"                . . Z ! ] O.    $ .         Q ~ a > Z O.;.;.c > n O.) ! i .                         ",
"                . . J O.O.O.    . .         ;.;.t . b X.$.;.y . f O.O.O.f . .                       ",
"                . . K O.y > # .                     ; > Z O.w . $ > n O.f . .                       ",
"                . . K O.5 . . .                     . . n O.w . . . f O.f . .                       ",
"                    ; >                             . . % > &       & > &                           ",
"                    . .                             . . . .         . . .                           ",
"                                                                                                    ",
"                                                                                                    "
};
